<svg width="24" height="24" viewBox="0 0 24 24" fill="none" xmlns="http://www.w3.org/2000/svg">
<g id="Io/Call">
<path id="Vector" d="M20.3998 15.13C19.1798 15.13 17.9698 14.94 16.8298 14.56C16.2598 14.37 15.6198 14.52 15.2398 14.89L12.9898 16.59C10.3798 15.2 8.77977 13.59 7.39977 11L9.04977 8.81C9.47977 8.38 9.62977 7.76 9.44977 7.17C9.06977 6.02 8.87977 4.82 8.87977 3.6C8.87977 2.72 8.15977 2 7.27977 2H3.60977C2.72977 2 2.00977 2.72 2.00977 3.6C2.00977 13.74 10.2598 22 20.4098 22C21.2898 22 22.0098 21.28 22.0098 20.4V16.74C22.0098 15.86 21.2898 15.14 20.4098 15.14L20.3998 15.13Z" fill="#E01E26"/>
</g>
</svg>
