<svg width="64" height="64" viewBox="0 0 64 64" fill="none" xmlns="http://www.w3.org/2000/svg">
<g id="Icons/Fast">
<path id="Union" fill-rule="evenodd" clip-rule="evenodd" d="M37.307 10.9258C46.912 11.0034 55.352 17.916 57.4491 27.7799C59.805 38.8347 52.6077 50.0708 41.5011 52.5044C34.6404 54.006 28.4786 52.4268 23.0418 47.9479C22.3946 47.4042 22.1098 46.7569 22.3169 45.9544C22.6535 44.6599 24.1551 44.2715 25.2683 45.1C25.4498 45.2331 25.6319 45.3681 25.8149 45.5037L25.8156 45.5042C26.8068 46.2388 27.8222 46.9914 28.8929 47.5595C39.2746 52.9446 52.0899 46.4463 53.9799 34.8995C55.5073 25.5534 49.5269 16.8027 40.2584 14.9128C34.7439 13.7995 29.799 15.1458 25.4496 18.7444C24.9318 19.1846 24.3881 19.4693 23.715 19.314C22.99 19.1587 22.4981 18.7185 22.3169 17.9936C22.1357 17.2687 22.3428 16.6474 22.9124 16.1555C24.5434 14.7057 26.3557 13.5665 28.3492 12.6863C31.0417 11.4954 33.8896 10.9258 37.307 10.9258ZM37.6427 25.6312V29.7476C37.6427 30.11 37.7463 30.3689 38.0052 30.6278C40.2317 32.8285 42.4323 35.0291 44.6329 37.2297C45.0213 37.618 45.3319 38.0581 45.3319 38.6536C45.3319 39.4303 45.0213 39.9999 44.3222 40.3364C43.6232 40.673 42.9501 40.5694 42.3805 40.0775C42.044 39.7927 41.7333 39.4562 41.4226 39.1196C40.69 38.387 39.9573 37.6515 39.2237 36.915C37.7539 35.4394 36.2801 33.9599 34.7949 32.4919C34.2512 31.9741 34.0182 31.3786 34.0441 30.6278V21.4888C34.0441 20.1167 35.1832 19.2364 36.4259 19.6507C37.1508 19.8837 37.6427 20.5568 37.6427 21.3594V25.5794V25.6312ZM10.5386 33.8122H17.5287H17.5546H24.5966C25.7357 33.8122 26.5642 33.0614 26.5642 32.0258C26.5901 30.9643 25.7616 30.2135 24.5707 30.2135H10.5127C9.32175 30.2135 8.51917 30.9643 8.51917 32.0258C8.51917 33.0873 9.34764 33.8122 10.5386 33.8122ZM15.1201 25.3721H7.89695C7.06849 25.3721 6.42125 24.8802 6.18824 24.1294C5.95523 23.4045 6.18824 22.5761 6.80959 22.1618C7.14615 21.9288 7.61217 21.7735 8.00051 21.7735C11.1753 21.7562 14.3386 21.762 17.5057 21.7677H17.5058H17.5061C19.091 21.7706 20.6769 21.7735 22.2657 21.7735C23.353 21.7735 24.1815 22.602 24.1556 23.6116C24.1556 24.6213 23.3271 25.3721 22.2139 25.3721H15.1201ZM19.9881 38.6277H19.9622H12.8166C11.7293 38.6277 10.9526 39.3785 10.9267 40.3881C10.9008 41.3719 11.7034 42.2263 12.7908 42.2263H27.1077C28.1174 42.2263 28.8682 41.5273 28.9458 40.5953C29.0235 39.4561 28.2468 38.6277 27.0559 38.6277H19.9881Z" fill="#E01E26"/>
</g>
</svg>
