<svg width="64" height="65" viewBox="0 0 64 65" fill="none" xmlns="http://www.w3.org/2000/svg">
<g id="Group 237655">
<rect id="Rectangle 205" y="0.285889" width="2.22222" height="64" fill="#231F20"/>
<rect id="Rectangle 207" x="61.7778" y="0.285889" width="2.22222" height="64" fill="#231F20"/>
<rect id="Rectangle 206" x="64" y="0.285889" width="2.22222" height="64" transform="rotate(90 64 0.285889)" fill="#231F20"/>
<path id="Vector" d="M47.926 35.0478L47.703 34.5081C48.0167 34.5081 48.3273 34.4465 48.6172 34.3268C48.907 34.2072 49.1704 34.0318 49.3922 33.8107C49.614 33.5896 49.79 33.3272 49.91 33.0383C50.0301 32.7494 50.0919 32.4398 50.0919 32.1271C50.0919 31.8145 50.0301 31.5049 49.91 31.216C49.79 30.9271 49.614 30.6646 49.3922 30.4435C49.1704 30.2225 48.907 30.0471 48.6172 29.9274C48.3273 29.8078 48.0167 29.7462 47.703 29.7462H45.7441L43.9604 25.3176C43.6053 24.733 43.1053 24.2493 42.5084 23.913C41.9115 23.5766 41.2379 23.3989 40.5522 23.397H23.4478C22.7396 23.404 22.0458 23.5971 21.4362 23.9565C20.8267 24.316 20.323 24.8293 19.976 25.4446L18.24 29.7462H16.2652C15.9515 29.7462 15.6409 29.8078 15.351 29.9274C15.0612 30.0471 14.7978 30.2225 14.576 30.4435C14.3542 30.6646 14.1782 30.9271 14.0582 31.216C13.9381 31.5049 13.8763 31.8145 13.8763 32.1271C13.8763 32.4398 13.9381 32.7494 14.0582 33.0383C14.1782 33.3272 14.3542 33.5896 14.576 33.8107C14.7978 34.0318 15.0612 34.2072 15.351 34.3268C15.6409 34.4465 15.9515 34.5081 16.2652 34.5081L16.0741 35.0478C15.1216 35.4981 14.3168 36.2083 13.753 37.0962C13.1892 37.984 12.8896 39.0129 12.8889 40.0636V48.0001C12.8887 48.9149 13.2057 49.8017 13.7861 50.5104C14.3665 51.219 15.1748 51.7061 16.0741 51.889V54.3494C16.0741 54.9808 16.3258 55.5864 16.7738 56.0329C17.2218 56.4795 17.8294 56.7303 18.463 56.7303H20.0556C20.6892 56.7303 21.2968 56.4795 21.7448 56.0329C22.1928 55.5864 22.4445 54.9808 22.4445 54.3494V51.9684H41.5556V54.3494C41.5556 54.9808 41.8073 55.5864 42.2553 56.0329C42.7033 56.4795 43.3109 56.7303 43.9445 56.7303H45.5371C46.1706 56.7303 46.7783 56.4795 47.2263 56.0329C47.6743 55.5864 47.926 54.9808 47.926 54.3494V51.889C48.8253 51.7061 49.6335 51.219 50.214 50.5104C50.7944 49.8017 51.1113 48.9149 51.1111 48.0001V40.0636C51.1105 39.0129 50.8108 37.984 50.247 37.0962C49.6833 36.2083 48.8784 35.4981 47.926 35.0478ZM47.7348 31.3335C47.8841 31.3332 48.0304 31.3747 48.1571 31.4533C48.2838 31.5319 48.3858 31.6444 48.4515 31.7779C48.5111 31.899 48.5386 32.0333 48.5317 32.168C48.5247 32.3027 48.4834 32.4334 48.4117 32.5478C48.34 32.6621 48.2402 32.7564 48.1218 32.8217C48.0033 32.8869 47.8702 32.9211 47.7348 32.9208H47.0182L46.3811 31.3335H47.7348ZM18.24 34.0319L19.5141 30.8573L21.3934 26.0954C21.6127 25.7513 21.9165 25.4687 22.276 25.2743C22.6355 25.0799 23.0388 24.9801 23.4478 24.9843H40.5522C40.9449 24.9824 41.332 25.077 41.6792 25.2597C42.0264 25.4424 42.3231 25.7077 42.543 26.0319L45.9511 34.5081H18.0489L18.24 34.0319ZM16.2652 32.9208C16.054 32.9208 15.8515 32.8372 15.7021 32.6883C15.5528 32.5395 15.4689 32.3376 15.4689 32.1271C15.4689 31.9166 15.5528 31.7148 15.7021 31.5659C15.8515 31.4171 16.054 31.3335 16.2652 31.3335H17.6667L17.0297 32.9208H16.2652ZM20.8519 54.3494C20.8519 54.5598 20.768 54.7617 20.6186 54.9105C20.4693 55.0594 20.2668 55.143 20.0556 55.143H18.463C18.2518 55.143 18.0493 55.0594 17.8999 54.9105C17.7506 54.7617 17.6667 54.5598 17.6667 54.3494V51.9684H20.8519V54.3494ZM25.0085 50.3811L25.9322 45.6192H38.0997L39.0234 50.3811H25.0085ZM46.3334 54.3494C46.3334 54.5598 46.2495 54.7617 46.1001 54.9105C45.9508 55.0594 45.7483 55.143 45.5371 55.143H43.9445C43.7333 55.143 43.5307 55.0594 43.3814 54.9105C43.2321 54.7617 43.1482 54.5598 43.1482 54.3494V51.9684H46.3334V54.3494ZM49.5185 48.0001C49.5185 48.6316 49.2669 49.2372 48.8189 49.6837C48.3709 50.1302 47.7632 50.3811 47.1297 50.3811H40.616L39.5171 44.6827C39.4836 44.5005 39.3873 44.3357 39.2448 44.2169C39.1023 44.098 38.9225 44.0326 38.7367 44.0319H25.2634C25.0775 44.0326 24.8978 44.098 24.7553 44.2169C24.6128 44.3357 24.5164 44.5005 24.483 44.6827L23.3841 50.3811H16.8704C16.2368 50.3811 15.6292 50.1302 15.1812 49.6837C14.7332 49.2372 14.4815 48.6316 14.4815 48.0001V40.0636C14.4815 39.0112 14.901 38.0019 15.6477 37.2577C16.3943 36.5135 17.407 36.0954 18.463 36.0954H45.5371C46.593 36.0954 47.6057 36.5135 48.3524 37.2577C49.0991 38.0019 49.5185 39.0112 49.5185 40.0636V48.0001ZM23.2408 37.6827H18.463C17.8294 37.6827 17.2218 37.9335 16.7738 38.3801C16.3258 38.8266 16.0741 39.4322 16.0741 40.0636V41.6509C16.0741 41.8614 16.158 42.0633 16.3073 42.2121C16.4567 42.361 16.6592 42.4446 16.8704 42.4446H23.2408C23.452 42.4446 23.6545 42.361 23.8038 42.2121C23.9532 42.0633 24.0371 41.8614 24.0371 41.6509V38.4763C24.0371 38.2658 23.9532 38.064 23.8038 37.9151C23.6545 37.7663 23.452 37.6827 23.2408 37.6827ZM22.4445 40.8573H17.6667V40.0636C17.6667 39.8531 17.7506 39.6513 17.8999 39.5024C18.0493 39.3536 18.2518 39.27 18.463 39.27H22.4445V40.8573ZM18.463 44.0319C17.9905 44.0319 17.5286 44.1715 17.1358 44.4332C16.7429 44.6948 16.4368 45.0666 16.2559 45.5017C16.0751 45.9368 16.0278 46.4155 16.12 46.8773C16.2122 47.3392 16.4397 47.7634 16.7738 48.0964C17.1079 48.4294 17.5335 48.6562 17.9969 48.748C18.4603 48.8399 18.9407 48.7928 19.3772 48.6126C19.8137 48.4323 20.1868 48.1272 20.4493 47.7356C20.7118 47.3441 20.8519 46.8838 20.8519 46.4128C20.8519 45.7814 20.6002 45.1758 20.1522 44.7293C19.7042 44.2827 19.0966 44.0319 18.463 44.0319ZM18.463 47.2065C18.3055 47.2065 18.1515 47.1599 18.0206 47.0727C17.8896 46.9855 17.7876 46.8616 17.7273 46.7166C17.667 46.5715 17.6513 46.412 17.682 46.258C17.7127 46.1041 17.7886 45.9626 17.8999 45.8516C18.0113 45.7407 18.1532 45.6651 18.3076 45.6344C18.4621 45.6038 18.6222 45.6195 18.7677 45.6796C18.9132 45.7397 19.0376 45.8414 19.1251 45.9719C19.2126 46.1024 19.2593 46.2559 19.2593 46.4128C19.2593 46.6233 19.1754 46.8252 19.0261 46.974C18.8767 47.1229 18.6742 47.2065 18.463 47.2065ZM35.9815 39.27H29.6111C29.3999 39.27 29.1974 39.3536 29.0481 39.5024C28.8987 39.6513 28.8148 39.8531 28.8148 40.0636C28.8148 40.2741 28.8987 40.476 29.0481 40.6248C29.1974 40.7737 29.3999 40.8573 29.6111 40.8573H35.9815C36.1927 40.8573 36.3952 40.7737 36.5446 40.6248C36.6939 40.476 36.7778 40.2741 36.7778 40.0636C36.7778 39.8531 36.6939 39.6513 36.5446 39.5024C36.3952 39.3536 36.1927 39.27 35.9815 39.27ZM45.5371 37.6827H40.7593C40.5481 37.6827 40.3456 37.7663 40.1962 37.9151C40.0469 38.064 39.963 38.2658 39.963 38.4763V41.6509C39.963 41.8614 40.0469 42.0633 40.1962 42.2121C40.3456 42.361 40.5481 42.4446 40.7593 42.4446H47.1297C47.3408 42.4446 47.5434 42.361 47.6927 42.2121C47.8421 42.0633 47.926 41.8614 47.926 41.6509V40.0636C47.926 39.4322 47.6743 38.8266 47.2263 38.3801C46.7783 37.9335 46.1706 37.6827 45.5371 37.6827ZM46.3334 40.8573H41.5556V39.27H45.5371C45.7483 39.27 45.9508 39.3536 46.1001 39.5024C46.2495 39.6513 46.3334 39.8531 46.3334 40.0636V40.8573ZM45.5371 44.0319C45.0646 44.0319 44.6027 44.1715 44.2099 44.4332C43.817 44.6948 43.5108 45.0666 43.33 45.5017C43.1492 45.9368 43.1019 46.4155 43.1941 46.8773C43.2863 47.3392 43.5138 47.7634 43.8479 48.0964C44.182 48.4294 44.6076 48.6562 45.071 48.748C45.5344 48.8399 46.0147 48.7928 46.4513 48.6126C46.8878 48.4323 47.2609 48.1272 47.5234 47.7356C47.7858 47.3441 47.926 46.8838 47.926 46.4128C47.926 45.7814 47.6743 45.1758 47.2263 44.7293C46.7783 44.2827 46.1706 44.0319 45.5371 44.0319ZM45.5371 47.2065C45.3796 47.2065 45.2256 47.1599 45.0947 47.0727C44.9637 46.9855 44.8617 46.8616 44.8014 46.7166C44.7411 46.5715 44.7253 46.412 44.7561 46.258C44.7868 46.1041 44.8626 45.9626 44.974 45.8516C45.0854 45.7407 45.2272 45.6651 45.3817 45.6344C45.5362 45.6038 45.6963 45.6195 45.8418 45.6796C45.9873 45.7397 46.1117 45.8414 46.1992 45.9719C46.2867 46.1024 46.3334 46.2559 46.3334 46.4128C46.3334 46.6233 46.2495 46.8252 46.1001 46.974C45.9508 47.1229 45.7483 47.2065 45.5371 47.2065Z" fill="#231F20"/>
</g>
</svg>
