<svg width="64" height="65" viewBox="0 0 64 65" fill="none" xmlns="http://www.w3.org/2000/svg">
<path d="M30 16.2859H34V28.2859H30V16.2859ZM30 36.2859H34V48.2859H30V36.2859ZM36 30.2859H48V34.2859H36V30.2859ZM16 30.2859H28V34.2859H16V30.2859ZM8 20.2859H4V8.28589C4.00106 7.22535 4.42283 6.20855 5.17274 5.45863C5.92266 4.70871 6.93946 4.28695 8 4.28589H20V8.28589H8V20.2859ZM20 60.2859H8C6.93946 60.2848 5.92266 59.8631 5.17274 59.1131C4.42283 58.3632 4.00106 57.3464 4 56.2859V44.2859H8V56.2859H20V60.2859ZM56 60.2859H44V56.2859H56V44.2859H60V56.2859C59.9989 57.3464 59.5772 58.3632 58.8273 59.1131C58.0773 59.8631 57.0605 60.2848 56 60.2859ZM60 20.2859H56V8.28589H44V4.28589H56C57.0605 4.28695 58.0773 4.70871 58.8273 5.45863C59.5772 6.20855 59.9989 7.22535 60 8.28589V20.2859Z" fill="black"/>
</svg>
