<svg width="64" height="65" viewBox="0 0 64 65" fill="none" xmlns="http://www.w3.org/2000/svg">
<path d="M31.9999 59.6069C46.9199 59.6069 59.321 47.232 59.321 32.2857C59.321 17.3657 46.9461 4.9646 32.0261 4.9646C30.6067 4.9646 29.9107 5.82174 29.9107 7.21374V17.6069C29.9107 18.7589 30.6879 19.696 31.865 19.696C33.0444 19.696 33.8479 18.7589 33.8479 17.6069V9.59774C45.6341 10.5349 54.7404 20.2857 54.7404 32.2857C54.7528 35.2768 54.1732 38.2408 53.0351 41.007C51.897 43.7731 50.2229 46.2867 48.1091 48.403C45.9954 50.5193 43.4838 52.1965 40.719 53.3379C37.9542 54.4794 34.991 55.0625 31.9999 55.0537C19.3564 55.0537 9.20557 44.928 9.23185 32.2857C9.25814 26.6606 11.2673 21.5452 14.6159 17.6069C15.4456 16.5623 15.4993 15.304 14.6159 14.3657C13.7313 13.4023 12.2319 13.4823 11.2673 14.688C7.169 19.4549 4.67871 25.616 4.67871 32.2857C4.67871 47.232 17.0536 59.6069 31.9999 59.6069ZM36.2856 36.4103C38.401 34.2137 37.9736 31.2137 35.4284 29.4469L21.257 19.5623C19.9187 18.6252 18.5256 20.0183 19.4627 21.3566L29.3473 35.5269C31.1153 38.072 34.1153 38.5269 36.2856 36.4103Z" fill="black"/>
</svg>
