<svg width="24" height="25" viewBox="0 0 24 25" fill="none" xmlns="http://www.w3.org/2000/svg">
<path d="M11.9998 2.5C8.00977 2.5 4.75977 5.75 4.75977 9.74C4.75977 14.7 11.2398 21.97 11.5198 22.28C11.7798 22.57 12.2298 22.57 12.4898 22.28C12.7698 21.97 19.2498 14.7 19.2498 9.74C19.2498 5.75 15.9998 2.5 12.0098 2.5H11.9998ZM11.9998 13.39C9.98977 13.39 8.35977 11.76 8.35977 9.75C8.35977 7.74 9.98977 6.11 11.9998 6.11C14.0098 6.11 15.6398 7.74 15.6398 9.75C15.6398 11.76 14.0098 13.39 11.9998 13.39Z" fill="#E01E26"/>
</svg>
