<svg width="48" height="49" viewBox="0 0 48 49" fill="none" xmlns="http://www.w3.org/2000/svg">
<rect x="0.5" y="1" width="47" height="47" rx="23.5" stroke="black"/>
<path d="M32.3998 27.63C31.1798 27.63 29.9698 27.44 28.8298 27.06C28.2598 26.87 27.6198 27.02 27.2398 27.39L24.9898 29.09C22.3798 27.7 20.7798 26.09 19.3998 23.5L21.0498 21.31C21.4798 20.88 21.6298 20.26 21.4498 19.67C21.0698 18.52 20.8798 17.32 20.8798 16.1C20.8798 15.22 20.1598 14.5 19.2798 14.5H15.6098C14.7298 14.5 14.0098 15.22 14.0098 16.1C14.0098 26.24 22.2598 34.5 32.4098 34.5C33.2898 34.5 34.0098 33.78 34.0098 32.9V29.24C34.0098 28.36 33.2898 27.64 32.4098 27.64L32.3998 27.63Z" fill="#121212"/>
</svg>
