<svg width="48" height="49" viewBox="0 0 48 49" fill="none" xmlns="http://www.w3.org/2000/svg">
<rect x="0.5" y="1" width="47" height="47" rx="23.5" stroke="black"/>
<path d="M23.9998 14.5C20.0098 14.5 16.7598 17.75 16.7598 21.74C16.7598 26.7 23.2398 33.97 23.5198 34.28C23.7798 34.57 24.2298 34.57 24.4898 34.28C24.7698 33.97 31.2498 26.7 31.2498 21.74C31.2498 17.75 27.9998 14.5 24.0098 14.5H23.9998ZM23.9998 25.39C21.9898 25.39 20.3598 23.76 20.3598 21.75C20.3598 19.74 21.9898 18.11 23.9998 18.11C26.0098 18.11 27.6398 19.74 27.6398 21.75C27.6398 23.76 26.0098 25.39 23.9998 25.39Z" fill="#121212"/>
</svg>
