<svg width="48" height="49" viewBox="0 0 48 49" fill="none" xmlns="http://www.w3.org/2000/svg">
<rect x="0.5" y="1" width="47" height="47" rx="23.5" stroke="black"/>
<path d="M25.67 26.75C25.17 27.08 24.59 27.26 24 27.26C23.41 27.26 22.83 27.08 22.33 26.75L14.13 21.29C14.13 21.29 14.04 21.23 14 21.2V30.15C14 31.18 14.83 31.99 15.84 31.99H32.16C33.19 31.99 34 31.16 34 30.15V21.2C34 21.2 33.91 21.26 33.87 21.29L25.67 26.75Z" fill="#121212"/>
<path d="M14.78 20.31L22.98 25.77C23.29 25.98 23.65 26.08 24 26.08C24.35 26.08 24.71 25.98 25.02 25.77L33.22 20.31C33.71 19.98 34 19.44 34 18.85C34 17.84 33.17 17.01 32.16 17.01H15.84C14.83 17.01 14 17.84 14 18.85C14 19.44 14.29 19.99 14.78 20.31Z" fill="#121212"/>
</svg>
