<svg width="60" height="60" viewBox="0 0 60 60" fill="none" xmlns="http://www.w3.org/2000/svg">
<rect x="4" y="4" width="1.80556" height="52" fill="black"/>
<rect x="54.1953" y="4" width="1.80556" height="52" fill="black"/>
<rect x="56" y="4" width="1.80556" height="52" transform="rotate(90 56 4)" fill="black"/>
<path d="M42.9402 32.2441L42.7591 31.8056C43.014 31.8056 43.2664 31.7556 43.5019 31.6584C43.7374 31.5611 43.9513 31.4186 44.1316 31.239C44.3118 31.0594 44.4548 30.8461 44.5523 30.6114C44.6499 30.3767 44.7001 30.1251 44.7001 29.8711C44.7001 29.617 44.6499 29.3655 44.5523 29.1308C44.4548 28.8961 44.3118 28.6828 44.1316 28.5032C43.9513 28.3235 43.7374 28.181 43.5019 28.0838C43.2664 27.9866 43.014 27.9366 42.7591 27.9366H41.1675L39.7182 24.3383C39.4297 23.8634 39.0234 23.4704 38.5385 23.1971C38.0535 22.9238 37.5062 22.7794 36.9491 22.7778H23.0518C22.4763 22.7836 21.9126 22.9404 21.4174 23.2325C20.9221 23.5246 20.5129 23.9416 20.2309 24.4415L18.8204 27.9366H17.2159C16.961 27.9366 16.7086 27.9866 16.4731 28.0838C16.2376 28.181 16.0237 28.3235 15.8434 28.5032C15.6632 28.6828 15.5202 28.8961 15.4227 29.1308C15.3251 29.3655 15.2749 29.617 15.2749 29.8711C15.2749 30.1251 15.3251 30.3767 15.4227 30.6114C15.5202 30.8461 15.6632 31.0594 15.8434 31.239C16.0237 31.4186 16.2376 31.5611 16.4731 31.6584C16.7086 31.7556 16.961 31.8056 17.2159 31.8056L17.0606 32.2441C16.2867 32.61 15.6328 33.1871 15.1747 33.9084C14.7167 34.6298 14.4732 35.4658 14.4727 36.3195V42.7679C14.4725 43.5112 14.73 44.2317 15.2016 44.8075C15.6732 45.3833 16.3299 45.779 17.0606 45.9276V47.9266C17.0606 48.4397 17.2651 48.9318 17.6291 49.2946C17.9931 49.6574 18.4868 49.8612 19.0016 49.8612H20.2956C20.8104 49.8612 21.304 49.6574 21.668 49.2946C22.0321 48.9318 22.2365 48.4397 22.2365 47.9266V45.9921H37.7643V47.9266C37.7643 48.4397 37.9688 48.9318 38.3328 49.2946C38.6968 49.6574 39.1905 49.8612 39.7053 49.8612H40.9993C41.5141 49.8612 42.0077 49.6574 42.3717 49.2946C42.7358 48.9318 42.9402 48.4397 42.9402 47.9266V45.9276C43.6709 45.779 44.3277 45.3833 44.7992 44.8075C45.2708 44.2317 45.5284 43.5112 45.5282 42.7679V36.3195C45.5277 35.4658 45.2842 34.6298 44.8261 33.9084C44.3681 33.1871 43.7141 32.61 42.9402 32.2441ZM42.785 29.2262C42.9062 29.226 43.0251 29.2597 43.1281 29.3236C43.231 29.3874 43.3139 29.4788 43.3673 29.5874C43.4156 29.6858 43.4381 29.7948 43.4324 29.9043C43.4267 30.0137 43.3932 30.1199 43.3349 30.2129C43.2766 30.3058 43.1956 30.3824 43.0993 30.4354C43.0031 30.4884 42.8949 30.5161 42.785 30.5159H42.2027L41.6851 29.2262H42.785ZM18.8204 31.4187L19.8556 28.8393L21.3825 24.9703C21.5608 24.6908 21.8076 24.4611 22.0997 24.3032C22.3918 24.1452 22.7195 24.0641 23.0518 24.0675H36.9491C37.2681 24.066 37.5826 24.1428 37.8648 24.2913C38.1469 24.4398 38.3879 24.6553 38.5666 24.9187L41.3357 31.8056H18.6652L18.8204 31.4187ZM17.2159 30.5159C17.0443 30.5159 16.8797 30.448 16.7584 30.3271C16.6371 30.2061 16.5689 30.0421 16.5689 29.8711C16.5689 29.7001 16.6371 29.536 16.7584 29.4151C16.8797 29.2942 17.0443 29.2262 17.2159 29.2262H18.3546L17.837 30.5159H17.2159ZM20.9426 47.9266C20.9426 48.0977 20.8744 48.2617 20.7531 48.3826C20.6317 48.5035 20.4672 48.5715 20.2956 48.5715H19.0016C18.83 48.5715 18.6654 48.5035 18.5441 48.3826C18.4228 48.2617 18.3546 48.0977 18.3546 47.9266V45.9921H20.9426V47.9266ZM24.3199 44.7024L25.0704 40.8334H34.9564L35.7069 44.7024H24.3199ZM41.6463 47.9266C41.6463 48.0977 41.5781 48.2617 41.4568 48.3826C41.3354 48.5035 41.1709 48.5715 40.9993 48.5715H39.7053C39.5337 48.5715 39.3691 48.5035 39.2478 48.3826C39.1265 48.2617 39.0583 48.0977 39.0583 47.9266V45.9921H41.6463V47.9266ZM44.2342 42.7679C44.2342 43.281 44.0297 43.773 43.6657 44.1358C43.3017 44.4986 42.808 44.7024 42.2933 44.7024H37.0009L36.108 40.0725C36.0808 39.9244 36.0026 39.7906 35.8868 39.694C35.771 39.5974 35.625 39.5443 35.474 39.5437H24.5269C24.3759 39.5443 24.2299 39.5974 24.1141 39.694C23.9983 39.7906 23.92 39.9244 23.8928 40.0725L23 44.7024H17.7076C17.1928 44.7024 16.6991 44.4986 16.3351 44.1358C15.9711 43.773 15.7666 43.281 15.7666 42.7679V36.3195C15.7666 35.4644 16.1075 34.6443 16.7141 34.0396C17.3208 33.435 18.1436 33.0953 19.0016 33.0953H40.9993C41.8572 33.0953 42.6801 33.435 43.2867 34.0396C43.8934 34.6443 44.2342 35.4644 44.2342 36.3195V42.7679ZM22.8835 34.385H19.0016C18.4868 34.385 17.9931 34.5888 17.6291 34.9516C17.2651 35.3144 17.0606 35.8064 17.0606 36.3195V37.6092C17.0606 37.7802 17.1288 37.9442 17.2501 38.0652C17.3715 38.1861 17.536 38.254 17.7076 38.254H22.8835C23.0551 38.254 23.2197 38.1861 23.341 38.0652C23.4624 37.9442 23.5305 37.7802 23.5305 37.6092V35.0298C23.5305 34.8588 23.4624 34.6948 23.341 34.5738C23.2197 34.4529 23.0551 34.385 22.8835 34.385ZM22.2365 36.9643H18.3546V36.3195C18.3546 36.1485 18.4228 35.9845 18.5441 35.8635C18.6654 35.7426 18.83 35.6747 19.0016 35.6747H22.2365V36.9643ZM19.0016 39.5437C18.6177 39.5437 18.2424 39.6572 17.9232 39.8697C17.6041 40.0823 17.3553 40.3844 17.2084 40.7379C17.0615 41.0914 17.023 41.4804 17.0979 41.8556C17.1728 42.2309 17.3577 42.5756 17.6291 42.8461C17.9006 43.1167 18.2464 43.3009 18.6229 43.3756C18.9994 43.4502 19.3897 43.4119 19.7444 43.2655C20.099 43.1191 20.4022 42.8711 20.6155 42.553C20.8287 42.2349 20.9426 41.8608 20.9426 41.4782C20.9426 40.9652 20.7381 40.4731 20.3741 40.1103C20.0101 39.7475 19.5164 39.5437 19.0016 39.5437ZM19.0016 42.1231C18.8736 42.1231 18.7485 42.0853 18.6421 42.0144C18.5357 41.9435 18.4528 41.8428 18.4038 41.725C18.3549 41.6072 18.3421 41.4775 18.367 41.3524C18.392 41.2273 18.4536 41.1124 18.5441 41.0223C18.6346 40.9321 18.7499 40.8707 18.8754 40.8458C19.0009 40.8209 19.131 40.8337 19.2492 40.8825C19.3674 40.9313 19.4685 41.0139 19.5395 41.12C19.6106 41.226 19.6486 41.3507 19.6486 41.4782C19.6486 41.6493 19.5804 41.8133 19.4591 41.9342C19.3377 42.0551 19.1732 42.1231 19.0016 42.1231ZM33.2354 35.6747H28.0595C27.8879 35.6747 27.7233 35.7426 27.602 35.8635C27.4806 35.9845 27.4125 36.1485 27.4125 36.3195C27.4125 36.4905 27.4806 36.6545 27.602 36.7755C27.7233 36.8964 27.8879 36.9643 28.0595 36.9643H33.2354C33.407 36.9643 33.5715 36.8964 33.6929 36.7755C33.8142 36.6545 33.8824 36.4905 33.8824 36.3195C33.8824 36.1485 33.8142 35.9845 33.6929 35.8635C33.5715 35.7426 33.407 35.6747 33.2354 35.6747ZM40.9993 34.385H37.1173C36.9457 34.385 36.7812 34.4529 36.6598 34.5738C36.5385 34.6948 36.4703 34.8588 36.4703 35.0298V37.6092C36.4703 37.7802 36.5385 37.9442 36.6598 38.0652C36.7812 38.1861 36.9457 38.254 37.1173 38.254H42.2933C42.4648 38.254 42.6294 38.1861 42.7507 38.0652C42.8721 37.9442 42.9402 37.7802 42.9402 37.6092V36.3195C42.9402 35.8064 42.7358 35.3144 42.3717 34.9516C42.0077 34.5888 41.5141 34.385 40.9993 34.385ZM41.6463 36.9643H37.7643V35.6747H40.9993C41.1709 35.6747 41.3354 35.7426 41.4568 35.8635C41.5781 35.9845 41.6463 36.1485 41.6463 36.3195V36.9643ZM40.9993 39.5437C40.6154 39.5437 40.2401 39.6572 39.9209 39.8697C39.6017 40.0823 39.353 40.3844 39.2061 40.7379C39.0591 41.0914 39.0207 41.4804 39.0956 41.8556C39.1705 42.2309 39.3554 42.5756 39.6268 42.8461C39.8983 43.1167 40.2441 43.3009 40.6206 43.3756C40.9971 43.4502 41.3874 43.4119 41.7421 43.2655C42.0967 43.1191 42.3999 42.8711 42.6131 42.553C42.8264 42.2349 42.9402 41.8608 42.9402 41.4782C42.9402 40.9652 42.7358 40.4731 42.3717 40.1103C42.0077 39.7475 41.5141 39.5437 40.9993 39.5437ZM40.9993 42.1231C40.8713 42.1231 40.7462 42.0853 40.6398 42.0144C40.5334 41.9435 40.4505 41.8428 40.4015 41.725C40.3526 41.6072 40.3398 41.4775 40.3647 41.3524C40.3897 41.2273 40.4513 41.1124 40.5418 41.0223C40.6323 40.9321 40.7475 40.8707 40.8731 40.8458C40.9986 40.8209 41.1286 40.8337 41.2469 40.8825C41.3651 40.9313 41.4661 41.0139 41.5372 41.12C41.6083 41.226 41.6463 41.3507 41.6463 41.4782C41.6463 41.6493 41.5781 41.8133 41.4568 41.9342C41.3354 42.0551 41.1709 42.1231 40.9993 42.1231Z" fill="black"/>
</svg>
