<svg width="60" height="60" viewBox="0 0 60 60" fill="none" xmlns="http://www.w3.org/2000/svg">
<path d="M28.125 15H31.875V26.25H28.125V15ZM28.125 33.75H31.875V45H28.125V33.75ZM33.75 28.125H45V31.875H33.75V28.125ZM15 28.125H26.25V31.875H15V28.125ZM7.5 18.75H3.75V7.5C3.75099 6.50574 4.1464 5.55249 4.84945 4.84945C5.55249 4.1464 6.50574 3.75099 7.5 3.75H18.75V7.5H7.5V18.75ZM18.75 56.25H7.5C6.50574 56.249 5.55249 55.8536 4.84945 55.1506C4.1464 54.4475 3.75099 53.4943 3.75 52.5V41.25H7.5V52.5H18.75V56.25ZM52.5 56.25H41.25V52.5H52.5V41.25H56.25V52.5C56.249 53.4943 55.8536 54.4475 55.1506 55.1506C54.4475 55.8536 53.4943 56.249 52.5 56.25ZM56.25 18.75H52.5V7.5H41.25V3.75H52.5C53.4943 3.75099 54.4475 4.1464 55.1506 4.84945C55.8536 5.55249 56.249 6.50574 56.25 7.5V18.75Z" fill="black"/>
</svg>
