<svg width="56" height="56" viewBox="0 0 56 56" fill="none" xmlns="http://www.w3.org/2000/svg">
<path d="M27.9998 51.906C41.0547 51.906 51.9057 41.078 51.9057 28C51.9057 14.945 41.0778 4.09399 28.0228 4.09399C26.7808 4.09399 26.1718 4.84399 26.1718 6.06199V15.156C26.1718 16.164 26.8517 16.984 27.8818 16.984C28.9137 16.984 29.6168 16.164 29.6168 15.156V8.14799C39.9297 8.96799 47.8978 17.5 47.8978 28C47.9086 30.6172 47.4015 33.2107 46.4056 35.6311C45.4098 38.0514 43.9449 40.2508 42.0954 42.1026C40.2458 43.9544 38.0482 45.4219 35.629 46.4207C33.2098 47.4194 30.617 47.9297 27.9998 47.922C16.9368 47.922 8.05475 39.062 8.07775 28C8.10075 23.078 9.85875 18.602 12.7887 15.156C13.5147 14.242 13.5617 13.141 12.7887 12.32C12.0147 11.477 10.7028 11.547 9.85875 12.602C6.27275 16.773 4.09375 22.164 4.09375 28C4.09375 41.078 14.9218 51.906 27.9998 51.906ZM31.7498 31.609C33.6007 29.687 33.2267 27.062 30.9998 25.516L18.5998 16.867C17.4288 16.047 16.2098 17.266 17.0298 18.437L25.6788 30.836C27.2258 33.063 29.8507 33.461 31.7498 31.609Z" fill="black"/>
</svg>
