<svg width="377" height="377" viewBox="0 0 377 377" fill="none" xmlns="http://www.w3.org/2000/svg">
<g clip-path="url(#clip0_3265_26416)">
<rect width="377" height="377" fill="white"/>
<path d="M376.3 0H0V376.3H376.3V0Z" fill="#E01E26"/>
<path d="M97.2 170.3C91.1 170.3 85.4 169.1 80 166.8C74.6 164.5 70 161.3 66 157.3C62 153.3 58.8 148.6 56.5 143.3C54.2 137.9 53 132.2 53 126.1C53 120 54.2 114.3 56.5 108.9C58.8 103.5 62 98.9 66 94.8C70 90.8 74.7 87.6 80 85.3C85.4 83 91.1 81.8 97.2 81.8C105.1 81.8 112.4 83.7 119.2 87.6C120.5 88.3 121.4 89.4 121.8 90.8C122.2 92.2 122 93.5 121.3 94.8C120.6 96.2 119.5 97 118.1 97.4C116.7 97.8 115.3 97.6 114 96.9C111.5 95.4 108.8 94.3 106 93.6C103.2 92.9 100.3 92.5 97.2 92.5C92.5 92.5 88.1 93.4 84 95.2C79.9 97 76.4 99.4 73.3 102.4C70.3 105.4 67.9 109 66.1 113.1C64.3 117.2 63.4 121.6 63.4 126.2C63.4 130.9 64.3 135.3 66.1 139.4C67.9 143.5 70.3 147.1 73.3 150.1C76.3 153.2 79.9 155.6 84 157.4C88.1 159.2 92.5 160.1 97.2 160.1C100.5 160.1 103.6 159.6 106.7 158.7C109.7 157.8 112.6 156.5 115.3 154.8C116.6 153.9 117.9 153.6 119.3 154C120.7 154.3 121.8 155.1 122.6 156.4C123.4 157.7 123.6 159 123.3 160.4C123 161.8 122.2 162.9 120.9 163.8C113.7 168 105.8 170.3 97.2 170.3Z" fill="white"/>
<path d="M219.5 162.5C220.1 163.9 220.2 165.2 219.7 166.5C219.2 167.8 218.3 168.8 217 169.4C215.7 170 214.3 170.1 212.9 169.6C211.6 169.1 210.6 168.2 209.9 166.9L200.5 146.7H176.6C175.1 146.7 173.8 146.2 172.8 145.2C171.8 144.2 171.3 143 171.3 141.4C171.3 140 171.8 138.7 172.8 137.7C173.8 136.7 175 136.2 176.6 136.2H195.5L178.8 100.5L149.5 166.8C149 167.8 148.4 168.6 147.5 169.1C146.6 169.6 145.7 169.9 144.6 169.9C143.9 169.9 143.2 169.8 142.4 169.5C141.1 168.9 140.1 167.9 139.6 166.5C139.1 165.2 139.1 163.8 139.8 162.5L174 85.7C174.4 84.7 175 84 175.9 83.4C176.8 82.8 177.7 82.6 178.8 82.6C179.8 82.6 180.8 82.9 181.7 83.4C182.6 83.9 183.2 84.6 183.6 85.6L219.5 162.5Z" fill="white"/>
<path d="M318.1 169.9C316.7 169.9 315.5 169.4 314.5 168.4C313.5 167.4 313 166.1 313 164.7V110.8L289.1 166.8C288.7 167.8 288.1 168.5 287.3 169.1C286.5 169.7 285.5 170 284.5 170C283.5 170 282.5 169.7 281.6 169.2C280.7 168.7 280.1 167.9 279.7 167.1L251.9 108.5V164.9C251.9 166.3 251.4 167.5 250.4 168.5C249.4 169.5 248.2 170 246.8 170C245.4 170 244.1 169.5 243.1 168.5C242.1 167.5 241.5 166.3 241.5 164.9V85.5C241.5 84.3 241.9 83.2 242.6 82.3C243.3 81.3 244.3 80.8 245.5 80.5C246.7 80.2 247.8 80.4 248.9 80.9C250 81.4 250.8 82.2 251.3 83.3L284 152.1L313.3 83.4C313.8 82.3 314.6 81.5 315.7 80.9C316.8 80.3 318 80.2 319.1 80.4C320.3 80.6 321.3 81.2 322.1 82.2C322.9 83.2 323.3 84.2 323.3 85.4V164.7C323.3 166.1 322.8 167.4 321.8 168.4C320.8 169.4 319.5 169.9 318.1 169.9Z" fill="white"/>
<path d="M97.2 295.9C91.1 295.9 85.4 294.7 80 292.4C74.6 290.1 70 286.9 66 282.9C62 278.9 58.8 274.2 56.5 268.8C54.2 263.4 53 257.7 53 251.6C53 245.5 54.2 239.8 56.5 234.4C58.8 229 62 224.4 66 220.4C70 216.4 74.7 213.2 80 210.9C85.4 208.6 91.1 207.4 97.2 207.4C105.1 207.4 112.4 209.3 119.2 213.2C120.5 213.9 121.4 215 121.8 216.4C122.2 217.8 122 219.1 121.3 220.4C120.6 221.7 119.5 222.6 118.1 223C116.7 223.4 115.3 223.2 114 222.5C111.5 221 108.8 219.9 106 219.2C103.2 218.5 100.3 218.1 97.2 218.1C92.5 218.1 88.1 219 84 220.8C79.9 222.6 76.4 225 73.3 228C70.3 231 67.9 234.6 66.1 238.7C64.3 242.8 63.4 247.2 63.4 251.8C63.4 256.5 64.3 260.9 66.1 265C67.9 269.1 70.3 272.7 73.3 275.7C76.3 278.8 79.9 281.2 84 283C88.1 284.8 92.5 285.7 97.2 285.7C100.5 285.7 103.6 285.2 106.7 284.3C109.7 283.4 112.6 282.1 115.3 280.4C116.6 279.5 117.9 279.2 119.3 279.6C120.7 279.9 121.8 280.7 122.6 282C123.4 283.3 123.6 284.6 123.3 286C123 287.4 122.2 288.5 120.9 289.4C113.7 293.7 105.8 295.9 97.2 295.9Z" fill="white"/>
<path d="M318.1 295.6C316.7 295.6 315.5 295.1 314.5 294C313.5 293 313 291.7 313 290.3V236.4L289.1 292.4C288.7 293.4 288.1 294.1 287.3 294.7C286.5 295.3 285.5 295.6 284.5 295.7C283.5 295.7 282.5 295.4 281.6 294.9C280.7 294.3 280.1 293.6 279.7 292.8L251.9 234.2V290.6C251.9 292 251.4 293.2 250.4 294.2C249.4 295.2 248.2 295.7 246.8 295.7C245.4 295.7 244.1 295.2 243.1 294.2C242.1 293.2 241.5 292 241.5 290.6V211.2C241.5 210 241.9 208.9 242.6 208C243.3 207.1 244.3 206.4 245.5 206.2C246.7 206 247.8 206.1 248.9 206.6C250 207.1 250.8 207.9 251.3 209L284 277.8L313.3 209.1C313.8 208 314.6 207.2 315.7 206.6C316.8 206 318 205.9 319.1 206.1C320.3 206.3 321.3 206.9 322.1 207.9C322.9 208.9 323.3 209.9 323.3 211.1V290.4C323.3 291.8 322.8 293.1 321.8 294.1C320.8 295 319.5 295.6 318.1 295.6Z" fill="white"/>
<path d="M167.7 220.7C168.1 220.5 168.5 220.4 168.9 220.3C168.5 220.4 168.1 220.6 167.7 220.7Z" fill="white"/>
<path d="M220.6 268.1C220.3 268.8 220 269.6 219.7 270.3C220 269.5 220.3 268.8 220.6 268.1Z" fill="white"/>
<path d="M194.9 293.3C193.8 293.7 192.6 294.1 191.5 294.4C192.7 294.1 193.8 293.7 194.9 293.3Z" fill="white"/>
<path d="M175.5 295.8C175.2 295.8 174.9 295.7 174.6 295.7C174.9 295.8 175.2 295.8 175.5 295.8Z" fill="white"/>
<path d="M147 244.5C147.1 244 147.3 243.4 147.4 242.9C147.3 243.5 147.1 244 147 244.5Z" fill="white"/>
<path d="M136 257C136 256.6 135.9 256.2 135.9 255.8C135.9 256.2 135.9 256.6 136 257Z" fill="white"/>
<path d="M170.3 219.9C171.1 219.7 171.9 219.5 172.7 219.3C171.9 219.4 171.1 219.6 170.3 219.9Z" fill="white"/>
<path d="M223.5 255.7C223.5 256.2 223.4 256.6 223.4 257.1C223.4 256.6 223.4 256.1 223.5 255.7Z" fill="white"/>
<path d="M175.8 285.4C174.9 285.3 173.9 285.2 173 285C174 285.1 174.9 285.3 175.8 285.4Z" fill="white"/>
<path d="M179.4 285.6C178.4 285.6 177.4 285.5 176.4 285.4C177.5 285.5 178.5 285.6 179.4 285.6Z" fill="white"/>
<path d="M183.6 208.3C183.9 208.3 184.3 208.4 184.6 208.4C184.3 208.3 183.9 208.3 183.6 208.3Z" fill="white"/>
<path d="M146.3 248.3C146.4 247.4 146.5 246.6 146.7 245.7C146.6 246.6 146.4 247.4 146.3 248.3Z" fill="white"/>
<path d="M223.4 247.3C223.4 247.6 223.4 248 223.5 248.3C223.4 248 223.4 247.7 223.4 247.3Z" fill="white"/>
<path d="M146.1 251.7C146.1 250.7 146.1 249.7 146.3 248.6C146.2 249.7 146.1 250.7 146.1 251.7Z" fill="white"/>
<path d="M186 285C185.1 285.2 184.2 285.3 183.2 285.4C184.2 285.3 185.1 285.1 186 285Z" fill="white"/>
<path d="M136.5 243.7C136.6 243.2 136.7 242.8 136.8 242.3C136.7 242.7 136.6 243.2 136.5 243.7Z" fill="white"/>
<path d="M210.3 265.6C210 266.2 209.7 266.8 209.4 267.4C209.8 266.8 210.1 266.2 210.3 265.6Z" fill="white"/>
<path d="M211.5 262.7C211.3 263.3 211.1 263.9 210.8 264.6C211 263.9 211.3 263.3 211.5 262.7Z" fill="white"/>
<path d="M138.7 236.1C139.1 235.2 139.4 234.3 139.9 233.4C139.4 234.3 139 235.2 138.7 236.1Z" fill="white"/>
<path d="M222.9 260.1C222.8 260.5 222.8 260.9 222.7 261.3C222.7 260.9 222.8 260.5 222.9 260.1Z" fill="white"/>
<path d="M171.1 295.2C170.9 295.2 170.8 295.1 170.6 295.1C170.8 295.1 171 295.2 171.1 295.2Z" fill="white"/>
<path d="M221.8 264.6C221.6 265.3 221.4 265.9 221.1 266.5C221.4 265.9 221.6 265.2 221.8 264.6Z" fill="white"/>
<path d="M140.7 231.7C141 231 141.4 230.4 141.8 229.7C141.4 230.4 141 231.1 140.7 231.7Z" fill="white"/>
<path d="M170.4 209C170.8 208.9 171.2 208.8 171.6 208.8C171.2 208.9 170.8 209 170.4 209Z" fill="white"/>
<path d="M174.5 208.4C174.9 208.4 175.2 208.3 175.6 208.3C175.2 208.3 174.8 208.3 174.5 208.4Z" fill="white"/>
<path d="M213.2 252.6C213.2 253.3 213.1 254.1 213.1 254.8C213.1 254.1 213.2 253.4 213.2 252.6Z" fill="white"/>
<path d="M213.1 249.2C213.2 250 213.2 250.8 213.2 251.6C213.2 250.8 213.1 250 213.1 249.2Z" fill="white"/>
<path d="M182.7 285.4C181.8 285.5 181 285.5 180.1 285.5C181 285.6 181.8 285.5 182.7 285.4Z" fill="white"/>
<path d="M212.5 258.9C212.3 259.8 212 260.8 211.8 261.7C212 260.8 212.3 259.9 212.5 258.9Z" fill="white"/>
<path d="M219.7 270.3C219.6 270.6 219.4 270.9 219.2 271.2C219.4 270.9 219.5 270.6 219.7 270.3Z" fill="white"/>
<path d="M223.4 257C223.3 258 223.1 259.1 222.9 260.1C223.1 259.1 223.2 258.1 223.4 257Z" fill="white"/>
<path d="M221.2 266.5C221 267 220.8 267.5 220.6 268.1C220.8 267.6 221 267 221.2 266.5Z" fill="white"/>
<path d="M164 211C164.4 210.8 164.9 210.7 165.3 210.5C164.9 210.6 164.4 210.8 164 211Z" fill="white"/>
<path d="M171.7 208.8C172.6 208.6 173.6 208.5 174.5 208.4C173.5 208.5 172.6 208.6 171.7 208.8Z" fill="white"/>
<path d="M175.6 208.3C176.9 208.2 178.2 208.1 179.5 208.1C178.2 208.1 176.9 208.1 175.6 208.3Z" fill="white"/>
<path d="M223.5 248.4C223.6 249.4 223.6 250.5 223.7 251.5C223.6 250.4 223.5 249.4 223.5 248.4Z" fill="white"/>
<path d="M180.2 208.1C181.3 208.1 182.5 208.2 183.6 208.3C182.4 208.1 181.3 208.1 180.2 208.1Z" fill="white"/>
<path d="M223.5 248.4C223.5 248.1 223.5 247.7 223.4 247.4C221.2 226.9 205 210.7 184.6 208.4C184.3 208.4 183.9 208.3 183.6 208.3C182.5 208.2 181.4 208.1 180.2 208.1C180 208.1 179.7 208.1 179.5 208.1C178.2 208.1 176.9 208.2 175.6 208.3C175.2 208.3 174.9 208.4 174.5 208.4C173.5 208.5 172.6 208.7 171.7 208.8C171.3 208.9 170.9 208.9 170.5 209C169.4 209.2 168.4 209.5 167.3 209.8C166.7 210 166 210.2 165.4 210.4C165 210.6 164.5 210.7 164.1 210.9C163.4 211.2 162.7 211.4 162.1 211.7C159.1 213 158.3 217 160.4 219.5L160.7 219.8C162.1 221.5 164.5 222 166.5 221.2C167 221 167.4 220.8 167.9 220.7C168.3 220.5 168.7 220.4 169.1 220.3C169.5 220.2 170 220 170.4 219.9C171.2 219.7 172 219.5 172.8 219.3C173.1 219.2 173.3 219.2 173.6 219.2C174.3 219.1 175.1 218.9 175.9 218.8C176.2 218.8 176.5 218.7 176.7 218.7C177.7 218.6 178.7 218.5 179.7 218.5H179.8C179.9 218.5 180 218.5 180.1 218.5C181 218.5 181.9 218.6 182.8 218.6C183.1 218.6 183.3 218.6 183.6 218.7C184.6 218.8 185.5 219 186.5 219.1C200.7 222 211.6 233.8 213.1 248.4C213.1 248.6 213.1 248.9 213.2 249.1C213.3 249.9 213.3 250.7 213.3 251.5C213.3 251.7 213.3 251.8 213.3 252C213.3 252.2 213.3 252.4 213.3 252.6C213.3 253.3 213.2 254.1 213.2 254.8C213.2 255.1 213.1 255.4 213.1 255.8C213 256.8 212.8 257.8 212.7 258.7C212.7 258.8 212.7 258.8 212.7 258.9C212.5 259.8 212.2 260.8 212 261.7C211.9 262 211.8 262.4 211.7 262.7C211.5 263.3 211.3 263.9 211 264.6C210.9 264.9 210.7 265.3 210.6 265.6C210.3 266.2 210 266.8 209.7 267.4C209.5 267.7 209.4 268 209.3 268.2C208.9 269 208.4 269.7 208 270.5C206.8 272.4 206.8 274.8 208.3 276.5L208.5 276.8C210.6 279.4 214.7 279.2 216.5 276.4C217.6 274.7 218.6 273 219.5 271.2C219.7 270.9 219.8 270.6 220 270.3C220.3 269.6 220.6 268.9 220.9 268.1C221.1 267.6 221.3 267.1 221.5 266.5C221.7 265.9 222 265.2 222.2 264.6C222.5 263.5 222.8 262.5 223 261.3C223.1 260.9 223.2 260.5 223.2 260.1C223.4 259.1 223.6 258.1 223.7 257C223.8 256.5 223.8 256.1 223.8 255.6C223.9 254.7 223.9 253.7 224 252.8C224 252.3 224 251.9 224 251.4C223.6 250.4 223.5 249.4 223.5 248.4Z" fill="white"/>
<path d="M172.7 219.2C173 219.1 173.2 219.1 173.5 219.1C173.2 219.1 172.9 219.2 172.7 219.2Z" fill="white"/>
<path d="M182.7 218.7C183 218.7 183.2 218.7 183.5 218.8C183.2 218.7 182.9 218.7 182.7 218.7Z" fill="white"/>
<path d="M213 248.5C213 248.7 213 249 213.1 249.2C213 248.9 213 248.7 213 248.5Z" fill="white"/>
<path d="M175.8 218.7C176.1 218.7 176.4 218.6 176.6 218.6C176.3 218.7 176 218.7 175.8 218.7Z" fill="white"/>
<path d="M213.1 254.8C213.1 255.1 213 255.4 213 255.8C213 255.5 213 255.2 213.1 254.8Z" fill="white"/>
<path d="M210.8 264.5C210.7 264.8 210.5 265.2 210.4 265.5C210.5 265.2 210.6 264.9 210.8 264.5Z" fill="white"/>
<path d="M167.7 220.7C167.2 220.9 166.8 221 166.3 221.2H166.4C166.9 221 167.3 220.9 167.7 220.7Z" fill="white"/>
<path d="M211.8 261.7C211.7 262 211.6 262.4 211.5 262.7C211.6 262.3 211.7 262 211.8 261.7Z" fill="white"/>
<path d="M168.9 220.3C169.3 220.2 169.8 220 170.2 219.9C169.8 220 169.4 220.1 168.9 220.3Z" fill="white"/>
<path d="M209 268.2C209.2 267.9 209.3 267.6 209.4 267.4C209.3 267.7 209.2 267.9 209 268.2Z" fill="white"/>
<path d="M135.9 255.8C135.8 254.8 135.8 253.8 135.7 252.8C135.7 253.8 135.8 254.8 135.9 255.8Z" fill="white"/>
<path d="M137.9 238.3C138.1 237.6 138.4 236.8 138.7 236.1C138.4 236.9 138.1 237.6 137.9 238.3Z" fill="white"/>
<path d="M179.4 296C178.1 296 176.8 295.9 175.5 295.8C176.8 296 178.1 296 179.4 296Z" fill="white"/>
<path d="M183.6 295.8C182.5 295.9 181.4 296 180.2 296C181.3 296 182.5 295.9 183.6 295.8Z" fill="white"/>
<path d="M188 295.2C186.8 295.4 185.7 295.6 184.5 295.7C185.6 295.6 186.8 295.5 188 295.2Z" fill="white"/>
<path d="M139.8 233.4C140.1 232.8 140.3 232.3 140.6 231.7C140.4 232.3 140.1 232.9 139.8 233.4Z" fill="white"/>
<path d="M142.2 229.1C142.1 229.3 141.9 229.6 141.8 229.8C142 229.5 142.1 229.3 142.3 229C142.2 229 142.2 229 142.2 229.1Z" fill="white"/>
<path d="M197.7 284.8C196.2 283.1 193.9 282.5 191.7 283.3C191.3 283.5 190.8 283.6 190.4 283.8C189.9 284 189.4 284.1 188.9 284.3C188.3 284.5 187.6 284.6 187 284.8C186.7 284.9 186.4 284.9 186 285C185.1 285.2 184.2 285.3 183.2 285.4C183 285.4 182.8 285.4 182.6 285.4C181.7 285.5 180.9 285.5 180 285.5C179.9 285.5 179.7 285.5 179.6 285.5C179.5 285.5 179.4 285.5 179.4 285.5C178.4 285.5 177.4 285.4 176.4 285.3C176.2 285.3 176 285.3 175.8 285.2C174.9 285.1 174 285 173 284.8C172.9 284.8 172.8 284.8 172.8 284.8C158.8 281.9 148 270.2 146.3 255.8C146.3 255.5 146.2 255.2 146.2 254.8C146.1 254 146.1 253.3 146.1 252.5C146.1 252.3 146.1 252.1 146.1 251.9C146.1 251.8 146.1 251.7 146.1 251.6C146.1 250.6 146.1 249.6 146.3 248.5C146.3 248.4 146.3 248.3 146.4 248.1C146.5 247.2 146.6 246.4 146.8 245.5C146.9 245.1 147 244.7 147.1 244.3C147.2 243.8 147.4 243.2 147.5 242.7C147.6 242.2 147.8 241.8 147.9 241.3C148 240.9 148.2 240.5 148.3 240.2C148.7 239.1 149.2 238 149.7 236.9C149.7 236.8 149.8 236.7 149.9 236.6C150.2 235.9 150.6 235.3 151 234.7C151 234.6 151.1 234.6 151.1 234.5C152.3 232.6 152.1 230.1 150.7 228.4C148.5 225.8 144.3 225.9 142.4 228.8C142.2 229.1 142.1 229.3 141.9 229.6C141.5 230.2 141.2 230.9 140.8 231.5C140.5 232.1 140.2 232.6 140 233.2C139.6 234.1 139.2 235 138.8 235.9C138.5 236.6 138.2 237.3 138 238.1C137.8 238.6 137.7 239.1 137.5 239.7C137.3 240.5 137.1 241.3 136.9 242.1C136.8 242.6 136.7 243 136.6 243.5C136.3 244.8 136.1 246.1 136 247.4C136 247.5 136 247.5 136 247.6C135.9 248.9 135.8 250.2 135.8 251.5C135.8 251.9 135.8 252.3 135.8 252.7C135.8 253.7 135.9 254.7 136 255.7C136 256.1 136.1 256.5 136.1 256.9C138.2 275.8 152.4 291.1 170.8 295C171 295 171.1 295.1 171.3 295.1C172.4 295.3 173.6 295.5 174.7 295.6C175 295.6 175.3 295.7 175.6 295.7C176.9 295.8 178.2 295.9 179.5 295.9C179.8 295.9 180.1 295.9 180.3 295.9C181.4 295.9 182.6 295.8 183.7 295.7C184 295.7 184.3 295.7 184.6 295.6C185.8 295.5 187 295.3 188.1 295.1C188.6 295 189.1 294.9 189.6 294.8C190.3 294.6 191 294.5 191.6 294.3C192.8 294 193.9 293.6 195 293.2C195.3 293.1 195.5 293 195.8 292.9C199 291.7 200 287.5 197.7 284.8Z" fill="white"/>
<path d="M146.3 248.7C146.3 248.6 146.3 248.5 146.4 248.3C146.3 248.4 146.3 248.5 146.3 248.7Z" fill="white"/>
<path d="M146.3 255.9C146.3 255.6 146.2 255.3 146.2 254.9C146.3 255.2 146.3 255.5 146.3 255.9Z" fill="white"/>
<path d="M147.4 242.9C147.5 242.4 147.7 242 147.8 241.5C147.7 242 147.5 242.5 147.4 242.9Z" fill="white"/>
<path d="M187 284.8C186.7 284.9 186.4 284.9 186 285C186.4 284.9 186.7 284.8 187 284.8Z" fill="white"/>
<path d="M176.5 285.4C176.3 285.4 176.1 285.4 175.9 285.3C176 285.4 176.2 285.4 176.5 285.4Z" fill="white"/>
</g>
<defs>
<clipPath id="clip0_3265_26416">
<rect width="377" height="377" fill="white"/>
</clipPath>
</defs>
</svg>
