<svg width="20" height="21" viewBox="0 0 20 21" fill="none" xmlns="http://www.w3.org/2000/svg">
<g clip-path="url(#clip0_2971_9271)">
<path d="M0 1.7782C0 0.986953 0.6575 0.345703 1.46875 0.345703H18.5312C19.3425 0.345703 20 0.986953 20 1.7782V18.9132C20 19.7045 19.3425 20.3457 18.5312 20.3457H1.46875C0.6575 20.3457 0 19.7045 0 18.9132V1.7782ZM6.17875 17.0882V8.05695H3.1775V17.0882H6.17875ZM4.67875 6.8232C5.725 6.8232 6.37625 6.1307 6.37625 5.2632C6.3575 4.37695 5.72625 3.7032 4.69875 3.7032C3.67125 3.7032 3 4.3782 3 5.2632C3 6.1307 3.65125 6.8232 4.65875 6.8232H4.67875ZM10.8138 17.0882V12.0445C10.8138 11.7745 10.8337 11.5045 10.9137 11.312C11.13 10.7732 11.6238 10.2145 12.4538 10.2145C13.54 10.2145 13.9738 11.042 13.9738 12.257V17.0882H16.975V11.9082C16.975 9.1332 15.495 7.8432 13.52 7.8432C11.9275 7.8432 11.2137 8.7182 10.8138 9.33445V9.3657H10.7938L10.8138 9.33445V8.05695H7.81375C7.85125 8.90445 7.81375 17.0882 7.81375 17.0882H10.8138Z" fill="black"/>
</g>
<defs>
<clipPath id="clip0_2971_9271">
<rect width="20" height="20" fill="white" transform="translate(0 0.345703)"/>
</clipPath>
</defs>
</svg>
