<svg width="388" height="461" viewBox="0 0 388 461" fill="none" xmlns="http://www.w3.org/2000/svg">
<rect width="388" height="461" fill="white"/>
<path d="M382.3 6H6V382.3H382.3V6Z" fill="#E01E26"/>
<path d="M6 437.2V407H21V409.5H8.7V419H21V421.6H8.7V434.6H21V437.2H6Z" fill="#1A1A1A"/>
<path d="M39.9999 437.2V423.3L29.8999 407H33.1999L41.3999 420.8L49.4999 407H52.5999L42.6999 423.3V437.2H39.9999Z" fill="#1A1A1A"/>
<path d="M62.3999 437.2V407H77.2999V409.5H65.0999V419H77.2999V421.6H65.0999V434.6H77.2999V437.2H62.3999Z" fill="#1A1A1A"/>
<path d="M113.2 437.2V409.5H104.9V407H124.3V409.5H115.9V437.2H113.2Z" fill="#1A1A1A"/>
<path d="M134.6 437.2V407H137.4V419.2H153.8V407H156.6V437.2H153.8V421.6H137.4V437.2H134.6Z" fill="#1A1A1A"/>
<path d="M169.9 437.2V407H184.8V409.5H172.6V419H184.8V421.6H172.6V434.6H184.8V437.2H169.9Z" fill="#1A1A1A"/>
<path d="M215.3 437.2V407H230.3V409.5H218.1V419H229.8V421.6H218.1V437.2H215.3Z" fill="#1A1A1A"/>
<path d="M242.2 407.4H244.9V427.1C244.9 430.1 245.6 432.3 246.9 433.8C248.3 435.3 250.3 436 253.1 436C255.9 436 257.9 435.3 259.3 433.8C260.7 432.3 261.3 430.1 261.3 427.1V407.4H264V426.2C264 430.3 263.1 433.3 261.3 435.4C259.5 437.4 256.7 438.4 253 438.4C249.3 438.4 246.5 437.4 244.7 435.4C242.9 433.4 242 430.3 242 426.2V407.4H242.2Z" fill="#1A1A1A"/>
<path d="M282.7 437.6V409.9H274.4V407.4H293.8V409.9H285.5V437.6H282.7Z" fill="#1A1A1A"/>
<path d="M304 407.4H306.7V427.1C306.7 430.1 307.4 432.3 308.7 433.8C310.1 435.3 312.1 436 315 436C317.8 436 319.8 435.3 321.2 433.8C322.6 432.3 323.2 430.1 323.2 427.1V407.4H325.9V426.2C325.9 430.3 325 433.3 323.2 435.4C321.4 437.4 318.6 438.4 314.9 438.4C311.2 438.4 308.4 437.4 306.6 435.4C304.8 433.4 303.9 430.3 303.9 426.2V407.4H304Z" fill="#1A1A1A"/>
<path d="M357.5 437.6H354.2L343.6 423.2H342V437.6H339.2V407.4H344.8C348.1 407.4 350.5 408.1 352.2 409.4C353.8 410.8 354.6 412.8 354.6 415.6C354.6 418 353.9 419.8 352.5 421.2C351.1 422.5 349.2 423.2 346.7 423.2L357.5 437.6ZM341.9 409.7V420.9H344.7C347.3 420.9 349 420.5 350.1 419.7C351.1 418.9 351.6 417.5 351.6 415.5C351.6 413.4 351.1 411.9 350 411.1C349 410.2 347.2 409.8 344.7 409.8H341.9V409.7Z" fill="#1A1A1A"/>
<path d="M367.3 437.6V407.4H382.3V409.9H370V419.4H382.3V422H370V435H382.3V437.6H367.3Z" fill="#1A1A1A"/>
<path d="M103.2 176.3C97.1 176.3 91.4 175.1 86 172.8C80.6 170.5 76 167.3 72 163.3C68 159.3 64.8 154.6 62.5 149.3C60.2 143.9 59 138.2 59 132.1C59 126 60.2 120.3 62.5 114.9C64.8 109.5 68 104.9 72 100.8C76 96.8 80.7 93.6 86 91.3C91.4 89 97.1 87.8 103.2 87.8C111.1 87.8 118.4 89.7 125.2 93.6C126.5 94.3 127.4 95.4 127.8 96.8C128.2 98.2 128 99.5 127.3 100.8C126.6 102.2 125.5 103 124.1 103.4C122.7 103.8 121.3 103.6 120 102.9C117.5 101.4 114.8 100.3 112 99.6C109.2 98.9 106.3 98.5 103.2 98.5C98.5 98.5 94.1 99.4 90 101.2C85.9 103 82.4 105.4 79.3 108.4C76.3 111.4 73.9 115 72.1 119.1C70.3 123.2 69.4 127.6 69.4 132.2C69.4 136.9 70.3 141.3 72.1 145.4C73.9 149.5 76.3 153.1 79.3 156.1C82.3 159.2 85.9 161.6 90 163.4C94.1 165.2 98.5 166.1 103.2 166.1C106.5 166.1 109.6 165.6 112.7 164.7C115.7 163.8 118.6 162.5 121.3 160.8C122.6 159.9 123.9 159.6 125.3 160C126.7 160.3 127.8 161.1 128.6 162.4C129.4 163.7 129.6 165 129.3 166.4C129 167.8 128.2 168.9 126.9 169.8C119.7 174 111.8 176.3 103.2 176.3Z" fill="white"/>
<path d="M225.5 168.5C226.1 169.9 226.2 171.2 225.7 172.5C225.2 173.8 224.3 174.8 223 175.4C221.7 176 220.3 176.1 218.9 175.6C217.6 175.1 216.6 174.2 215.9 172.9L206.5 152.7H182.6C181.1 152.7 179.8 152.2 178.8 151.2C177.8 150.2 177.3 149 177.3 147.4C177.3 146 177.8 144.7 178.8 143.7C179.8 142.7 181 142.2 182.6 142.2H201.5L184.8 106.5L155.5 172.8C155 173.8 154.4 174.6 153.5 175.1C152.6 175.6 151.7 175.9 150.6 175.9C149.9 175.9 149.2 175.8 148.4 175.5C147.1 174.9 146.1 173.9 145.6 172.5C145.1 171.2 145.1 169.8 145.8 168.5L180 91.7C180.4 90.7 181 90 181.9 89.4C182.8 88.8 183.7 88.6 184.8 88.6C185.8 88.6 186.8 88.9 187.7 89.4C188.6 89.9 189.2 90.6 189.6 91.6L225.5 168.5Z" fill="white"/>
<path d="M324.1 175.9C322.7 175.9 321.5 175.4 320.5 174.4C319.5 173.4 319 172.1 319 170.7V116.8L295.1 172.8C294.7 173.8 294.1 174.5 293.3 175.1C292.5 175.7 291.5 176 290.5 176C289.5 176 288.5 175.7 287.6 175.2C286.7 174.7 286.1 173.9 285.7 173.1L257.9 114.5V170.9C257.9 172.3 257.4 173.5 256.4 174.5C255.4 175.5 254.2 176 252.8 176C251.4 176 250.1 175.5 249.1 174.5C248.1 173.5 247.5 172.3 247.5 170.9V91.5C247.5 90.3 247.9 89.2 248.6 88.3C249.3 87.3 250.3 86.8 251.5 86.5C252.7 86.2 253.8 86.4 254.9 86.9C256 87.4 256.8 88.2 257.3 89.3L290 158.1L319.3 89.4C319.8 88.3 320.6 87.5 321.7 86.9C322.8 86.3 324 86.2 325.1 86.4C326.3 86.6 327.3 87.2 328.1 88.2C328.9 89.2 329.3 90.2 329.3 91.4V170.7C329.3 172.1 328.8 173.4 327.8 174.4C326.8 175.4 325.5 175.9 324.1 175.9Z" fill="white"/>
<path d="M103.2 301.9C97.1 301.9 91.4 300.7 86 298.4C80.6 296.1 76 292.9 72 288.9C68 284.9 64.8 280.2 62.5 274.8C60.2 269.4 59 263.7 59 257.6C59 251.5 60.2 245.8 62.5 240.4C64.8 235 68 230.4 72 226.4C76 222.4 80.7 219.2 86 216.9C91.4 214.6 97.1 213.4 103.2 213.4C111.1 213.4 118.4 215.3 125.2 219.2C126.5 219.9 127.4 221 127.8 222.4C128.2 223.8 128 225.1 127.3 226.4C126.6 227.7 125.5 228.6 124.1 229C122.7 229.4 121.3 229.2 120 228.5C117.5 227 114.8 225.9 112 225.2C109.2 224.5 106.3 224.1 103.2 224.1C98.5 224.1 94.1 225 90 226.8C85.9 228.6 82.4 231 79.3 234C76.3 237 73.9 240.6 72.1 244.7C70.3 248.8 69.4 253.2 69.4 257.8C69.4 262.5 70.3 266.9 72.1 271C73.9 275.1 76.3 278.7 79.3 281.7C82.3 284.8 85.9 287.2 90 289C94.1 290.8 98.5 291.7 103.2 291.7C106.5 291.7 109.6 291.2 112.7 290.3C115.7 289.4 118.6 288.1 121.3 286.4C122.6 285.5 123.9 285.2 125.3 285.6C126.7 285.9 127.8 286.7 128.6 288C129.4 289.3 129.6 290.6 129.3 292C129 293.4 128.2 294.5 126.9 295.4C119.7 299.7 111.8 301.9 103.2 301.9Z" fill="white"/>
<path d="M324.1 301.6C322.7 301.6 321.5 301.1 320.5 300C319.5 299 319 297.7 319 296.3V242.4L295.1 298.4C294.7 299.4 294.1 300.1 293.3 300.7C292.5 301.3 291.5 301.6 290.5 301.7C289.5 301.7 288.5 301.4 287.6 300.9C286.7 300.3 286.1 299.6 285.7 298.8L257.9 240.2V296.6C257.9 298 257.4 299.2 256.4 300.2C255.4 301.2 254.2 301.7 252.8 301.7C251.4 301.7 250.1 301.2 249.1 300.2C248.1 299.2 247.5 298 247.5 296.6V217.2C247.5 216 247.9 214.9 248.6 214C249.3 213.1 250.3 212.4 251.5 212.2C252.7 212 253.8 212.1 254.9 212.6C256 213.1 256.8 213.9 257.3 215L290 283.8L319.3 215.1C319.8 214 320.6 213.2 321.7 212.6C322.8 212 324 211.9 325.1 212.1C326.3 212.3 327.3 212.9 328.1 213.9C328.9 214.9 329.3 215.9 329.3 217.1V296.4C329.3 297.8 328.8 299.1 327.8 300.1C326.8 301 325.5 301.6 324.1 301.6Z" fill="white"/>
<path d="M173.7 226.7C174.1 226.5 174.5 226.4 174.9 226.3C174.5 226.4 174.1 226.6 173.7 226.7Z" fill="white"/>
<path d="M226.6 274.1C226.3 274.8 226 275.6 225.7 276.3C226 275.5 226.3 274.8 226.6 274.1Z" fill="white"/>
<path d="M200.9 299.3C199.8 299.7 198.6 300.1 197.5 300.4C198.7 300.1 199.8 299.7 200.9 299.3Z" fill="white"/>
<path d="M181.5 301.8C181.2 301.8 180.9 301.7 180.6 301.7C180.9 301.8 181.2 301.8 181.5 301.8Z" fill="white"/>
<path d="M153 250.5C153.1 250 153.3 249.4 153.4 248.9C153.3 249.5 153.1 250 153 250.5Z" fill="white"/>
<path d="M142 263C142 262.6 141.9 262.2 141.9 261.8C141.9 262.2 141.9 262.6 142 263Z" fill="white"/>
<path d="M176.3 225.9C177.1 225.7 177.9 225.5 178.7 225.3C177.9 225.4 177.1 225.6 176.3 225.9Z" fill="white"/>
<path d="M229.5 261.7C229.5 262.2 229.4 262.6 229.4 263.1C229.4 262.6 229.4 262.1 229.5 261.7Z" fill="white"/>
<path d="M181.8 291.4C180.9 291.3 179.9 291.2 179 291C180 291.1 180.9 291.3 181.8 291.4Z" fill="white"/>
<path d="M185.4 291.6C184.4 291.6 183.4 291.5 182.4 291.4C183.5 291.5 184.5 291.6 185.4 291.6Z" fill="white"/>
<path d="M189.6 214.3C189.9 214.3 190.3 214.4 190.6 214.4C190.3 214.3 189.9 214.3 189.6 214.3Z" fill="white"/>
<path d="M152.3 254.3C152.4 253.4 152.5 252.6 152.7 251.7C152.6 252.6 152.4 253.4 152.3 254.3Z" fill="white"/>
<path d="M229.4 253.3C229.4 253.6 229.4 254 229.5 254.3C229.4 254 229.4 253.7 229.4 253.3Z" fill="white"/>
<path d="M152.1 257.7C152.1 256.7 152.1 255.7 152.3 254.6C152.2 255.7 152.1 256.7 152.1 257.7Z" fill="white"/>
<path d="M192 291C191.1 291.2 190.2 291.3 189.2 291.4C190.2 291.3 191.1 291.1 192 291Z" fill="white"/>
<path d="M142.5 249.7C142.6 249.2 142.7 248.8 142.8 248.3C142.7 248.7 142.6 249.2 142.5 249.7Z" fill="white"/>
<path d="M216.3 271.6C216 272.2 215.7 272.8 215.4 273.4C215.8 272.8 216.1 272.2 216.3 271.6Z" fill="white"/>
<path d="M217.5 268.7C217.3 269.3 217.1 269.9 216.8 270.6C217 269.9 217.3 269.3 217.5 268.7Z" fill="white"/>
<path d="M144.7 242.1C145.1 241.2 145.4 240.3 145.9 239.4C145.4 240.3 145 241.2 144.7 242.1Z" fill="white"/>
<path d="M228.9 266.1C228.8 266.5 228.8 266.9 228.7 267.3C228.7 266.9 228.8 266.5 228.9 266.1Z" fill="white"/>
<path d="M177.1 301.2C176.9 301.2 176.8 301.1 176.6 301.1C176.8 301.1 177 301.2 177.1 301.2Z" fill="white"/>
<path d="M227.8 270.6C227.6 271.3 227.4 271.9 227.1 272.5C227.4 271.9 227.6 271.2 227.8 270.6Z" fill="white"/>
<path d="M146.7 237.7C147 237 147.4 236.4 147.8 235.7C147.4 236.4 147 237.1 146.7 237.7Z" fill="white"/>
<path d="M176.4 215C176.8 214.9 177.2 214.8 177.6 214.8C177.2 214.9 176.8 215 176.4 215Z" fill="white"/>
<path d="M180.5 214.4C180.9 214.4 181.2 214.3 181.6 214.3C181.2 214.3 180.8 214.3 180.5 214.4Z" fill="white"/>
<path d="M219.2 258.6C219.2 259.3 219.1 260.1 219.1 260.8C219.1 260.1 219.2 259.4 219.2 258.6Z" fill="white"/>
<path d="M219.1 255.2C219.2 256 219.2 256.8 219.2 257.6C219.2 256.8 219.1 256 219.1 255.2Z" fill="white"/>
<path d="M188.7 291.4C187.8 291.5 187 291.5 186.1 291.5C187 291.6 187.8 291.5 188.7 291.4Z" fill="white"/>
<path d="M218.5 264.9C218.3 265.8 218 266.8 217.8 267.7C218 266.8 218.3 265.9 218.5 264.9Z" fill="white"/>
<path d="M225.7 276.3C225.6 276.6 225.4 276.9 225.2 277.2C225.4 276.9 225.5 276.6 225.7 276.3Z" fill="white"/>
<path d="M229.4 263C229.3 264 229.1 265.1 228.9 266.1C229.1 265.1 229.2 264.1 229.4 263Z" fill="white"/>
<path d="M227.2 272.5C227 273 226.8 273.5 226.6 274.1C226.8 273.6 227 273 227.2 272.5Z" fill="white"/>
<path d="M170 217C170.4 216.8 170.9 216.7 171.3 216.5C170.9 216.6 170.4 216.8 170 217Z" fill="white"/>
<path d="M177.7 214.8C178.6 214.6 179.6 214.5 180.5 214.4C179.5 214.5 178.6 214.6 177.7 214.8Z" fill="white"/>
<path d="M181.6 214.3C182.9 214.2 184.2 214.1 185.5 214.1C184.2 214.1 182.9 214.1 181.6 214.3Z" fill="white"/>
<path d="M229.5 254.4C229.6 255.4 229.6 256.5 229.7 257.5C229.6 256.4 229.5 255.4 229.5 254.4Z" fill="white"/>
<path d="M186.2 214.1C187.3 214.1 188.5 214.2 189.6 214.3C188.4 214.1 187.3 214.1 186.2 214.1Z" fill="white"/>
<path d="M229.5 254.4C229.5 254.1 229.5 253.7 229.4 253.4C227.2 232.9 211 216.7 190.6 214.4C190.3 214.4 189.9 214.3 189.6 214.3C188.5 214.2 187.4 214.1 186.2 214.1C186 214.1 185.7 214.1 185.5 214.1C184.2 214.1 182.9 214.2 181.6 214.3C181.2 214.3 180.9 214.4 180.5 214.4C179.5 214.5 178.6 214.7 177.7 214.8C177.3 214.9 176.9 214.9 176.5 215C175.4 215.2 174.4 215.5 173.3 215.8C172.7 216 172 216.2 171.4 216.4C171 216.6 170.5 216.7 170.1 216.9C169.4 217.2 168.7 217.4 168.1 217.7C165.1 219 164.3 223 166.4 225.5L166.7 225.8C168.1 227.5 170.5 228 172.5 227.2C173 227 173.4 226.8 173.9 226.7C174.3 226.5 174.7 226.4 175.1 226.3C175.5 226.2 176 226 176.4 225.9C177.2 225.7 178 225.5 178.8 225.3C179.1 225.2 179.3 225.2 179.6 225.2C180.3 225.1 181.1 224.9 181.9 224.8C182.2 224.8 182.5 224.7 182.7 224.7C183.7 224.6 184.7 224.5 185.7 224.5H185.8C185.9 224.5 186 224.5 186.1 224.5C187 224.5 187.9 224.6 188.8 224.6C189.1 224.6 189.3 224.6 189.6 224.7C190.6 224.8 191.5 225 192.5 225.1C206.7 228 217.6 239.8 219.1 254.4C219.1 254.6 219.1 254.9 219.2 255.1C219.3 255.9 219.3 256.7 219.3 257.5C219.3 257.7 219.3 257.8 219.3 258C219.3 258.2 219.3 258.4 219.3 258.6C219.3 259.3 219.2 260.1 219.2 260.8C219.2 261.1 219.1 261.4 219.1 261.8C219 262.8 218.8 263.8 218.7 264.7C218.7 264.8 218.7 264.8 218.7 264.9C218.5 265.8 218.2 266.8 218 267.7C217.9 268 217.8 268.4 217.7 268.7C217.5 269.3 217.3 269.9 217 270.6C216.9 270.9 216.7 271.3 216.6 271.6C216.3 272.2 216 272.8 215.7 273.4C215.5 273.7 215.4 274 215.3 274.2C214.9 275 214.4 275.7 214 276.5C212.8 278.4 212.8 280.8 214.3 282.5L214.5 282.8C216.6 285.4 220.7 285.2 222.5 282.4C223.6 280.7 224.6 279 225.5 277.2C225.7 276.9 225.8 276.6 226 276.3C226.3 275.6 226.6 274.9 226.9 274.1C227.1 273.6 227.3 273.1 227.5 272.5C227.7 271.9 228 271.2 228.2 270.6C228.5 269.5 228.8 268.5 229 267.3C229.1 266.9 229.2 266.5 229.2 266.1C229.4 265.1 229.6 264.1 229.7 263C229.8 262.5 229.8 262.1 229.8 261.6C229.9 260.7 229.9 259.7 230 258.8C230 258.3 230 257.9 230 257.4C229.6 256.4 229.5 255.4 229.5 254.4Z" fill="white"/>
<path d="M178.7 225.2C179 225.1 179.2 225.1 179.5 225.1C179.2 225.1 178.9 225.2 178.7 225.2Z" fill="white"/>
<path d="M188.7 224.7C189 224.7 189.2 224.7 189.5 224.8C189.2 224.7 188.9 224.7 188.7 224.7Z" fill="white"/>
<path d="M219 254.5C219 254.7 219 255 219.1 255.2C219 254.9 219 254.7 219 254.5Z" fill="white"/>
<path d="M181.8 224.7C182.1 224.7 182.4 224.6 182.6 224.6C182.3 224.7 182 224.7 181.8 224.7Z" fill="white"/>
<path d="M219.1 260.8C219.1 261.1 219 261.4 219 261.8C219 261.5 219 261.2 219.1 260.8Z" fill="white"/>
<path d="M216.8 270.5C216.7 270.8 216.5 271.2 216.4 271.5C216.5 271.2 216.6 270.9 216.8 270.5Z" fill="white"/>
<path d="M173.7 226.7C173.2 226.9 172.8 227 172.3 227.2H172.4C172.9 227 173.3 226.9 173.7 226.7Z" fill="white"/>
<path d="M217.8 267.7C217.7 268 217.6 268.4 217.5 268.7C217.6 268.3 217.7 268 217.8 267.7Z" fill="white"/>
<path d="M174.9 226.3C175.3 226.2 175.8 226 176.2 225.9C175.8 226 175.4 226.1 174.9 226.3Z" fill="white"/>
<path d="M215 274.2C215.2 273.9 215.3 273.6 215.4 273.4C215.3 273.7 215.2 273.9 215 274.2Z" fill="white"/>
<path d="M141.9 261.8C141.8 260.8 141.8 259.8 141.7 258.8C141.7 259.8 141.8 260.8 141.9 261.8Z" fill="white"/>
<path d="M143.9 244.3C144.1 243.6 144.4 242.8 144.7 242.1C144.4 242.9 144.1 243.6 143.9 244.3Z" fill="white"/>
<path d="M185.4 302C184.1 302 182.8 301.9 181.5 301.8C182.8 302 184.1 302 185.4 302Z" fill="white"/>
<path d="M189.6 301.8C188.5 301.9 187.4 302 186.2 302C187.3 302 188.5 301.9 189.6 301.8Z" fill="white"/>
<path d="M194 301.2C192.8 301.4 191.7 301.6 190.5 301.7C191.6 301.6 192.8 301.5 194 301.2Z" fill="white"/>
<path d="M145.8 239.4C146.1 238.8 146.3 238.3 146.6 237.7C146.4 238.3 146.1 238.9 145.8 239.4Z" fill="white"/>
<path d="M148.2 235.1C148.1 235.3 147.9 235.6 147.8 235.8C148 235.5 148.1 235.3 148.3 235C148.2 235 148.2 235 148.2 235.1Z" fill="white"/>
<path d="M203.7 290.8C202.2 289.1 199.9 288.5 197.7 289.3C197.3 289.5 196.8 289.6 196.4 289.8C195.9 290 195.4 290.1 194.9 290.3C194.3 290.5 193.6 290.6 193 290.8C192.7 290.9 192.4 290.9 192 291C191.1 291.2 190.2 291.3 189.2 291.4C189 291.4 188.8 291.4 188.6 291.4C187.7 291.5 186.9 291.5 186 291.5C185.9 291.5 185.7 291.5 185.6 291.5C185.5 291.5 185.4 291.5 185.4 291.5C184.4 291.5 183.4 291.4 182.4 291.3C182.2 291.3 182 291.3 181.8 291.2C180.9 291.1 180 291 179 290.8C178.9 290.8 178.8 290.8 178.8 290.8C164.8 287.9 154 276.2 152.3 261.8C152.3 261.5 152.2 261.2 152.2 260.8C152.1 260 152.1 259.3 152.1 258.5C152.1 258.3 152.1 258.1 152.1 257.9C152.1 257.8 152.1 257.7 152.1 257.6C152.1 256.6 152.1 255.6 152.3 254.5C152.3 254.4 152.3 254.3 152.4 254.1C152.5 253.2 152.6 252.4 152.8 251.5C152.9 251.1 153 250.7 153.1 250.3C153.2 249.8 153.4 249.2 153.5 248.7C153.6 248.2 153.8 247.8 153.9 247.3C154 246.9 154.2 246.5 154.3 246.2C154.7 245.1 155.2 244 155.7 242.9C155.7 242.8 155.8 242.7 155.9 242.6C156.2 241.9 156.6 241.3 157 240.7C157 240.6 157.1 240.6 157.1 240.5C158.3 238.6 158.1 236.1 156.7 234.4C154.5 231.8 150.3 231.9 148.4 234.8C148.2 235.1 148.1 235.3 147.9 235.6C147.5 236.2 147.2 236.9 146.8 237.5C146.5 238.1 146.2 238.6 146 239.2C145.6 240.1 145.2 241 144.8 241.9C144.5 242.6 144.2 243.3 144 244.1C143.8 244.6 143.7 245.1 143.5 245.7C143.3 246.5 143.1 247.3 142.9 248.1C142.8 248.6 142.7 249 142.6 249.5C142.3 250.8 142.1 252.1 142 253.4C142 253.5 142 253.5 142 253.6C141.9 254.9 141.8 256.2 141.8 257.5C141.8 257.9 141.8 258.3 141.8 258.7C141.8 259.7 141.9 260.7 142 261.7C142 262.1 142.1 262.5 142.1 262.9C144.2 281.8 158.4 297.1 176.8 301C177 301 177.1 301.1 177.3 301.1C178.4 301.3 179.6 301.5 180.7 301.6C181 301.6 181.3 301.7 181.6 301.7C182.9 301.8 184.2 301.9 185.5 301.9C185.8 301.9 186.1 301.9 186.3 301.9C187.4 301.9 188.6 301.8 189.7 301.7C190 301.7 190.3 301.7 190.6 301.6C191.8 301.5 193 301.3 194.1 301.1C194.6 301 195.1 300.9 195.6 300.8C196.3 300.6 197 300.5 197.6 300.3C198.8 300 199.9 299.6 201 299.2C201.3 299.1 201.5 299 201.8 298.9C205 297.7 206 293.5 203.7 290.8Z" fill="white"/>
<path d="M152.3 254.7C152.3 254.6 152.3 254.5 152.4 254.3C152.3 254.4 152.3 254.5 152.3 254.7Z" fill="white"/>
<path d="M152.3 261.9C152.3 261.6 152.2 261.3 152.2 260.9C152.3 261.2 152.3 261.5 152.3 261.9Z" fill="white"/>
<path d="M153.4 248.9C153.5 248.4 153.7 248 153.8 247.5C153.7 248 153.5 248.5 153.4 248.9Z" fill="white"/>
<path d="M193 290.8C192.7 290.9 192.4 290.9 192 291C192.4 290.9 192.7 290.8 193 290.8Z" fill="white"/>
<path d="M182.5 291.4C182.3 291.4 182.1 291.4 181.9 291.3C182 291.4 182.2 291.4 182.5 291.4Z" fill="white"/>
</svg>
