<svg width="24" height="24" viewBox="0 0 24 24" fill="none" xmlns="http://www.w3.org/2000/svg">
<g id="Io/Mail">
<path id="Vector" d="M13.67 14.25C13.17 14.58 12.59 14.76 12 14.76C11.41 14.76 10.83 14.58 10.33 14.25L2.13 8.78995C2.13 8.78995 2.04 8.72995 2 8.69995V17.65C2 18.68 2.83 19.49 3.84 19.49H20.16C21.19 19.49 22 18.66 22 17.65V8.69995C22 8.69995 21.91 8.75995 21.87 8.78995L13.67 14.25Z" fill="#E01E26"/>
<path id="Vector_2" d="M2.78 7.81001L10.98 13.27C11.29 13.48 11.65 13.58 12 13.58C12.35 13.58 12.71 13.48 13.02 13.27L21.22 7.81001C21.71 7.48001 22 6.94001 22 6.35001C22 5.34001 21.17 4.51001 20.16 4.51001H3.84C2.83 4.51001 2 5.34001 2 6.35001C2 6.94001 2.29 7.49001 2.78 7.81001Z" fill="#E01E26"/>
</g>
</svg>
