<svg width="25" height="20" viewBox="0 0 25 20" fill="none" xmlns="http://www.w3.org/2000/svg">
<path id="Vector" d="M4.44286 8.07619C3.88572 8.07619 3.41429 7.99048 2.9 7.77619C2.38572 7.5619 2.00001 7.30476 1.65715 6.91905C1.31429 6.53333 1.01429 6.14762 0.800005 5.67619C0.58572 5.20476 0.5 4.69048 0.5 4.13333C0.5 3.57619 0.58572 3.10476 0.800005 2.59048C1.01429 2.11905 1.27143 1.69048 1.65715 1.34762C2.00001 1.00476 2.42857 0.704761 2.9 0.490476C3.37143 0.27619 3.88572 0.190477 4.44286 0.190477C5.00001 0.190477 5.81428 0.361904 6.41428 0.704761C6.54285 0.747618 6.62857 0.876192 6.62857 1.00476C6.62857 1.13333 6.62858 1.2619 6.58572 1.34762C6.54286 1.47619 6.41429 1.5619 6.28571 1.5619C6.15714 1.5619 6.02857 1.5619 5.9 1.51905C5.68572 1.39048 5.42857 1.30476 5.17143 1.21905C4.91428 1.17619 4.65715 1.13333 4.4 1.13333C3.97143 1.13333 3.58571 1.21905 3.24285 1.39047C2.85714 1.5619 2.55715 1.77619 2.30001 2.03333C2.04286 2.29047 1.82858 2.63333 1.65715 2.97619C1.48572 3.36191 1.4 3.74762 1.4 4.13333C1.4 4.51905 1.48572 4.94762 1.65715 5.29048C1.82858 5.67619 2.04286 5.97619 2.30001 6.23333C2.55715 6.49048 2.9 6.70476 3.24285 6.87619C3.62857 7.04762 4.01429 7.13333 4.4 7.13333C4.78572 7.13333 4.95715 7.09048 5.25715 7.00476C5.51429 6.91905 5.77143 6.79048 6.02857 6.6619C6.15714 6.57619 6.24286 6.57619 6.37143 6.57619C6.50001 6.57619 6.58571 6.66191 6.67143 6.79048C6.75714 6.91905 6.75714 7.00476 6.71429 7.13333C6.71429 7.2619 6.62857 7.34762 6.5 7.43333C5.85714 7.81905 5.17143 7.99048 4.4 7.99048L4.44286 8.07619ZM15.2857 7.39048C15.3286 7.51905 15.3286 7.64762 15.2857 7.73333C15.2429 7.81905 15.1571 7.94762 15.0286 7.99048C14.9 8.03333 14.7714 8.03333 14.6429 7.99048C14.5143 7.94762 14.4286 7.86191 14.3857 7.73333L13.5714 5.93333H11.4286C11.3 5.93333 11.1714 5.89048 11.0857 5.80476C11 5.71905 10.9571 5.59047 10.9571 5.4619C10.9571 5.33333 11 5.20476 11.0857 5.11905C11.1714 5.03333 11.3 4.99048 11.4286 4.99048H13.1L11.6 1.81905L8.98571 7.73333C8.94285 7.81905 8.9 7.90476 8.81428 7.94762C8.72857 7.99048 8.64285 8.03333 8.55714 8.03333C8.47142 8.03333 8.42857 8.03333 8.34285 8.03333C8.21428 7.99048 8.12858 7.90476 8.08572 7.77619C8.04286 7.64762 8.04286 7.51905 8.08572 7.43333L11.1286 0.619048C11.1286 0.533334 11.2143 0.44762 11.3 0.404763C11.3857 0.361905 11.4714 0.319046 11.5571 0.319046C11.6429 0.319046 11.7286 0.319048 11.8143 0.404763C11.9 0.44762 11.9429 0.490477 11.9857 0.619048L15.1571 7.47619L15.2857 7.39048ZM24.0714 8.03333C23.9429 8.03333 23.8571 7.99048 23.7714 7.90476C23.6857 7.81905 23.6429 7.69048 23.6429 7.5619V2.76191L21.5 7.73333C21.5 7.81905 21.4143 7.90476 21.3286 7.94762C21.2429 7.99048 21.1571 8.03333 21.0714 8.03333C20.9857 8.03333 20.9 8.03333 20.8143 7.94762C20.7286 7.86191 20.6857 7.81905 20.6429 7.77619L18.1571 2.54762V7.5619C18.1571 7.69048 18.1143 7.77619 18.0286 7.86191C17.9429 7.94762 17.8143 7.99048 17.7286 7.99048C17.6429 7.99048 17.4714 7.94762 17.3857 7.86191C17.3 7.77619 17.2571 7.64762 17.2571 7.5619V0.490476C17.2571 0.404761 17.2571 0.276191 17.3429 0.190477C17.3857 0.104763 17.5143 0.0619048 17.6 0.0190476C17.6857 -0.0238095 17.8143 0.0190476 17.9 0.0190476C17.9857 0.0619048 18.0714 0.147619 18.1143 0.233333L21.0286 6.36191L23.6429 0.27619C23.6857 0.190476 23.7714 0.104761 23.8571 0.0619041C23.9429 0.019047 24.0714 0.0190476 24.1571 0.0190476C24.2429 0.0190476 24.3714 0.104763 24.4143 0.190477C24.5 0.276191 24.5 0.361904 24.5 0.490476V7.51905C24.5 7.64762 24.4571 7.77619 24.3714 7.86191C24.2857 7.94762 24.1571 7.99048 24.0286 7.99048L24.0714 8.03333ZM4.44286 19.2619C3.88572 19.2619 3.41429 19.1762 2.9 18.9619C2.42857 18.7476 2.00001 18.4905 1.65715 18.1048C1.31429 17.719 1.01429 17.3333 0.800005 16.8619C0.58572 16.3905 0.5 15.8762 0.5 15.319C0.5 14.7619 0.58572 14.2905 0.800005 13.7762C1.01429 13.3048 1.27143 12.8762 1.65715 12.5333C2.04286 12.1905 2.42857 11.8905 2.9 11.6762C3.37143 11.4619 3.88572 11.3762 4.44286 11.3762C5.00001 11.3762 5.81428 11.5476 6.41428 11.8905C6.54285 11.9333 6.62857 12.0619 6.62857 12.1905C6.62857 12.319 6.62858 12.4476 6.58572 12.5333C6.54286 12.6619 6.41429 12.7476 6.28571 12.7476C6.15714 12.7476 6.02857 12.7476 5.9 12.7048C5.68572 12.5762 5.42857 12.4905 5.17143 12.4048C4.91428 12.319 4.65715 12.319 4.4 12.319C3.97143 12.319 3.58571 12.4048 3.24285 12.5762C2.9 12.7476 2.55715 12.9619 2.30001 13.219C2.04286 13.4762 1.82858 13.819 1.65715 14.1619C1.48572 14.5476 1.4 14.9333 1.4 15.319C1.4 15.7048 1.48572 16.1333 1.65715 16.4762C1.82858 16.8619 2.04286 17.1619 2.30001 17.4191C2.55715 17.6762 2.9 17.8905 3.24285 18.0619C3.58571 18.2333 4.01429 18.319 4.4 18.319C4.78572 18.319 4.95715 18.2762 5.25715 18.1905C5.51429 18.1048 5.77143 17.9762 6.02857 17.8476C6.15714 17.7619 6.24286 17.7619 6.37143 17.7619C6.50001 17.7619 6.58571 17.8476 6.67143 17.9762C6.75714 18.1048 6.75714 18.1905 6.71429 18.319C6.67143 18.4476 6.62857 18.5333 6.5 18.619C5.85714 19.0048 5.17143 19.1762 4.4 19.1762L4.44286 19.2619ZM24.0714 19.219C23.9429 19.219 23.8571 19.1762 23.7714 19.0905C23.6857 19.0048 23.6429 18.8762 23.6429 18.7476V13.9476L21.5 18.9191C21.5 19.0048 21.4143 19.0905 21.3286 19.1333C21.2429 19.1762 21.1571 19.219 21.0714 19.219C20.9857 19.219 20.9 19.2191 20.8143 19.1333C20.7286 19.0905 20.6857 19.0048 20.6429 18.9619L18.1571 13.7333V18.7476C18.1571 18.8762 18.1143 18.9619 18.0286 19.0476C17.9429 19.1333 17.8143 19.1762 17.7286 19.1762C17.6429 19.1762 17.4714 19.1333 17.3857 19.0476C17.3 18.9619 17.2571 18.8333 17.2571 18.7476V11.6762C17.2571 11.5905 17.2571 11.4619 17.3429 11.3762C17.3857 11.2905 17.5143 11.2476 17.6 11.2048C17.6857 11.1619 17.8143 11.2048 17.9 11.2048C17.9857 11.2476 18.0714 11.3333 18.1143 11.4191L21.0286 17.5476L23.6429 11.4619C23.6857 11.3762 23.7714 11.2905 23.8571 11.2476C23.9429 11.2048 24.0714 11.2048 24.1571 11.2048C24.2429 11.2048 24.3714 11.2905 24.4143 11.3762C24.5 11.4619 24.5 11.5476 24.5 11.6762V18.7048C24.5 18.8333 24.4571 18.9619 24.3714 19.0476C24.2857 19.1333 24.1571 19.1762 24.0286 19.1762L24.0714 19.219ZM15.4143 16.7762C15.4143 16.819 15.3714 16.9048 15.3286 16.9905C15.3286 16.9048 15.3714 16.8619 15.4143 16.7762ZM13.1 19.0048C13.0143 19.0048 12.8857 19.0905 12.8 19.0905C12.8857 19.0905 13.0143 19.0476 13.1 19.0048ZM11.3857 19.219C11.3857 19.219 11.3429 19.219 11.3 19.219C11.3 19.219 11.3429 19.219 11.3857 19.219ZM10.9143 12.4905C11 12.4905 11.0429 12.4905 11.1286 12.4476C11.0429 12.4476 11 12.4476 10.9143 12.4905ZM12.1143 11.4619C12.1143 11.4619 12.1571 11.4619 12.2 11.4619C12.2 11.4619 12.1571 11.4619 12.1143 11.4619ZM8.81428 15.019C8.81428 14.9333 8.81428 14.8476 8.81428 14.8048C8.81428 14.8905 8.81428 14.9762 8.81428 15.019ZM15.6286 14.9333C15.6286 14.9333 15.6286 14.9762 15.6286 15.019C15.6286 15.019 15.6286 14.9762 15.6286 14.9333ZM7.91428 14.5905C7.91428 14.5476 7.91428 14.5048 7.91428 14.4619C7.91428 14.4619 7.91428 14.5476 7.91428 14.5905ZM14.4714 16.5619C14.4714 16.6048 14.4286 16.6476 14.3857 16.7333C14.3857 16.6905 14.4286 16.6476 14.4714 16.5619ZM14.6 16.3048C14.6 16.3476 14.6 16.3905 14.5571 16.4762C14.5571 16.4333 14.6 16.3476 14.6 16.3048ZM11 19.1762C11 19.1762 11 19.1762 10.9571 19.1762C10.9571 19.1762 10.9571 19.1762 11 19.1762ZM15.5 16.4762C15.5 16.519 15.5 16.6048 15.4571 16.6476C15.4571 16.6048 15.5 16.519 15.5 16.4762ZM8.30001 13.519C8.30001 13.4762 8.34285 13.3905 8.38571 13.3476C8.38571 13.3905 8.30001 13.4762 8.30001 13.519ZM11.3 11.4619C11.3 11.4619 11.3429 11.4619 11.3857 11.4619H11.3ZM14.7286 15.4048C14.7286 15.4476 14.7286 15.5333 14.7286 15.619C14.7286 15.5762 14.7286 15.4905 14.7286 15.4048ZM12.0286 18.319C11.9429 18.319 11.8571 18.319 11.8143 18.319C11.9 18.319 11.9857 18.319 12.0286 18.319ZM15.3286 16.9905C15.3286 16.9905 15.3286 17.0333 15.2857 17.0762C15.2857 17.0762 15.2857 17.0333 15.3286 16.9905ZM15.6286 15.7905C15.6286 15.8762 15.6286 15.9619 15.5857 16.0476C15.5857 15.9619 15.5857 15.8762 15.6286 15.7905ZM15.4571 16.6476C15.4571 16.6905 15.4571 16.7333 15.4143 16.7762C15.4143 16.7333 15.4143 16.6905 15.4571 16.6476ZM10.3571 11.719C10.3571 11.719 10.4429 11.719 10.4857 11.6762C10.4857 11.6762 10.4 11.6762 10.3571 11.719ZM15.6714 15.019C15.6714 15.019 15.6714 14.9762 15.6714 14.9333C15.4571 13.0905 14.0429 11.6762 12.2429 11.4619C12.2429 11.4619 12.2 11.4619 12.1571 11.4619C12.0714 11.4619 11.9429 11.4619 11.8571 11.4619H11.8143C11.6857 11.4619 11.6 11.4619 11.4714 11.4619C11.4714 11.4619 11.4286 11.4619 11.3857 11.4619C11.3 11.4619 11.2143 11.4619 11.1286 11.4619H11.0429C10.9571 11.4619 10.8714 11.5048 10.7429 11.5476C10.7 11.5476 10.6143 11.5476 10.5714 11.5905C10.5714 11.5905 10.4857 11.5905 10.4429 11.6333C10.4 11.6333 10.3143 11.6762 10.2714 11.719C10.0143 11.8476 9.92857 12.1905 10.1 12.4048C10.2286 12.5762 10.4429 12.619 10.6143 12.5762C10.6571 12.5762 10.7 12.5762 10.7429 12.5333H10.8286C10.8286 12.5333 10.9143 12.5333 10.9571 12.5333H11.1714C11.1714 12.4905 11.2143 12.4905 11.2571 12.4905C11.3 12.4905 11.3857 12.4905 11.4714 12.4905C11.4714 12.4905 11.5143 12.4905 11.5571 12.4905C11.6429 12.4905 11.7286 12.4905 11.8143 12.4905C11.9 12.4905 11.9857 12.4905 12.0714 12.4905C12.1571 12.4905 12.1143 12.4905 12.1571 12.4905C12.2429 12.4905 12.3286 12.4905 12.4143 12.4905C13.6571 12.7476 14.6429 13.7762 14.7714 15.1048V15.1476C14.7714 15.2333 14.7714 15.2762 14.7714 15.3619V15.4476C14.7714 15.4905 14.7714 15.5762 14.7714 15.6619C14.7714 15.7476 14.7714 15.7048 14.7714 15.7476C14.7714 15.8333 14.7714 15.919 14.7714 16.0048C14.7714 16.0905 14.7286 16.1762 14.7286 16.2619C14.7286 16.2619 14.7286 16.3048 14.7286 16.3476C14.7286 16.3905 14.7286 16.4333 14.6857 16.519C14.6857 16.519 14.6857 16.5619 14.6857 16.6048C14.6857 16.6476 14.6429 16.6905 14.6 16.7762C14.6 16.7762 14.6 16.819 14.6 16.8619C14.6 16.9476 14.5143 16.9905 14.4714 17.0762C14.3857 17.2476 14.3857 17.4619 14.4714 17.5905C14.6429 17.8476 15.0286 17.8476 15.2 17.5905C15.2857 17.419 15.3714 17.2905 15.4571 17.119C15.4571 17.119 15.4571 17.0762 15.5 17.0333C15.5 16.9905 15.5429 16.9048 15.5857 16.819C15.5857 16.7762 15.5857 16.7333 15.6286 16.6905C15.6714 16.6476 15.6714 16.5619 15.6714 16.519C15.6714 16.4333 15.7143 16.3476 15.7571 16.219V16.1333C15.7571 16.0476 15.7571 15.9619 15.8 15.8762C15.8 15.8333 15.8 15.7905 15.8 15.7476C15.8 15.6619 15.8 15.5762 15.8 15.4905V15.3619C15.8 15.2762 15.7571 15.1905 15.7571 15.1048L15.6714 15.019ZM11.1286 12.4476C11.1286 12.4476 11.1714 12.4476 11.2143 12.4476C11.2143 12.4476 11.1714 12.4476 11.1286 12.4476ZM12.0286 12.4048C12.0286 12.4048 12.0714 12.4048 12.1143 12.4048C12.1143 12.4048 12.0714 12.4048 12.0286 12.4048ZM11.4286 12.4048C11.4286 12.4048 11.4714 12.4048 11.5143 12.4048C11.5143 12.4048 11.4714 12.4048 11.4286 12.4048ZM14.7286 15.5762C14.7286 15.5762 14.7286 15.619 14.7286 15.6619C14.7286 15.6619 14.7286 15.619 14.7286 15.5762ZM14.5143 16.4762C14.5143 16.4762 14.5143 16.5191 14.5143 16.5619C14.5143 16.5619 14.5143 16.519 14.5143 16.4762ZM10.7 12.5762C10.6571 12.5762 10.6143 12.5762 10.5714 12.619C10.6143 12.619 10.6571 12.619 10.7 12.5762ZM14.6 16.219C14.6 16.219 14.6 16.2619 14.6 16.3048C14.6 16.3048 14.6 16.2619 14.6 16.219ZM10.7857 12.5333C10.7857 12.5333 10.8714 12.5333 10.9143 12.5333C10.9143 12.5333 10.8286 12.5333 10.7857 12.5333ZM14.3857 16.7762C14.3857 16.7762 14.3857 16.7333 14.3857 16.6905C14.3857 16.6905 14.3857 16.7333 14.3857 16.7762ZM8.04286 14.119C8.04286 14.0762 8.08571 13.9905 8.12857 13.9048C8.12857 13.9905 8.08572 14.0333 8.04286 14.119ZM12.5 19.1762C12.4143 19.1762 12.2857 19.1762 12.2 19.219C12.2857 19.219 12.4143 19.219 12.5 19.1762ZM8.21429 13.6905C8.21429 13.6476 8.25715 13.6048 8.30001 13.519C8.30001 13.5619 8.25714 13.6048 8.21429 13.6905ZM8.42857 13.3048V13.3476C8.42857 13.3476 8.42857 13.3048 8.47143 13.2619L8.42857 13.3048ZM13.3571 18.2762C13.2286 18.1048 13.0143 18.0619 12.8429 18.1476C12.8429 18.1476 12.7571 18.1476 12.7143 18.1905C12.6714 18.1905 12.6286 18.1905 12.5857 18.2333C12.5429 18.2333 12.4571 18.2333 12.4143 18.2762C12.4143 18.2762 12.3714 18.2762 12.3286 18.2762C12.2429 18.2762 12.1571 18.2762 12.0714 18.2762H12.0286C11.9429 18.2762 11.8571 18.2762 11.8143 18.2762H11.7714C11.6857 18.2762 11.6 18.2762 11.5143 18.2762C11.5143 18.2762 11.5143 18.2762 11.4714 18.2762C11.3857 18.2762 11.3 18.2762 11.2143 18.2762C9.97143 18.0191 9.02857 16.9905 8.85714 15.7048C8.85714 15.7048 8.85714 15.6619 8.85714 15.619C8.85714 15.5333 8.85714 15.4905 8.85714 15.4048V15.319C8.85714 15.2333 8.85714 15.1476 8.85714 15.0619C8.85714 14.9762 8.85714 14.8905 8.85714 14.8476V14.7619C8.85714 14.719 8.85714 14.6762 8.85714 14.6333C8.85714 14.5905 8.85714 14.5476 8.85714 14.5048V14.4191C8.85714 14.3333 8.94285 14.2048 8.98571 14.119C8.98571 14.0762 9.02857 13.9905 9.07143 13.9476C9.15714 13.7762 9.15714 13.5619 9.07143 13.3905C8.85714 13.1762 8.51428 13.1762 8.34285 13.3905C8.34285 13.3905 8.34286 13.4333 8.30001 13.4762C8.30001 13.519 8.25714 13.6048 8.21429 13.6476C8.21429 13.6905 8.17142 13.7333 8.12857 13.819C8.12857 13.9048 8.04286 13.9905 8.04286 14.0762C8.04286 14.119 8 14.2048 7.95714 14.2905C7.95714 14.3333 7.95714 14.3762 7.91428 14.4191C7.91428 14.5048 7.91429 14.5476 7.87143 14.6333C7.87143 14.6762 7.87143 14.719 7.87143 14.7619C7.87143 14.8905 7.82857 14.9762 7.82857 15.1048C7.82857 15.2333 7.82857 15.3619 7.82857 15.4905V15.5762C7.82857 15.6619 7.82857 15.7476 7.82857 15.8333V15.9191C8 17.5905 9.28571 18.9619 10.9143 19.3048C10.9143 19.3048 10.9143 19.3048 10.9571 19.3048C11.0429 19.3048 11.1714 19.3048 11.2571 19.3476C11.2571 19.3476 11.3 19.3476 11.3429 19.3476C11.4714 19.3476 11.5571 19.3476 11.6857 19.3476H11.7714C11.8571 19.3476 11.9857 19.3476 12.0714 19.3476C12.0714 19.3476 12.1143 19.3476 12.1571 19.3476C12.2429 19.3476 12.3714 19.3476 12.4571 19.3048H12.5857C12.6286 19.2619 12.7143 19.2619 12.7571 19.219C12.8429 19.219 12.9714 19.1762 13.0571 19.1333C13.0571 19.1333 13.1 19.1333 13.1429 19.1333C13.4429 19.0476 13.5286 18.6619 13.3143 18.4048L13.3571 18.2762ZM8.81428 15.7048C8.81428 15.7048 8.81428 15.6619 8.81428 15.619C8.81428 15.619 8.81428 15.6619 8.81428 15.7048ZM12.4143 18.2762C12.4143 18.2762 12.3714 18.2762 12.3286 18.2762C12.3286 18.2762 12.3714 18.2762 12.4143 18.2762ZM11.4714 18.319C11.4714 18.319 11.4714 18.319 11.4286 18.319C11.4286 18.319 11.4286 18.319 11.4714 18.319Z" fill="#E01E26"/>
</svg>
