<svg width="24" height="25" viewBox="0 0 24 25" fill="none" xmlns="http://www.w3.org/2000/svg">
<path d="M3.21271 14.3967C2.5429 14.3967 2 13.8539 2 13.1841V11.8164C2 11.1466 2.5429 10.6038 3.21271 10.6038C3.88251 10.6038 4.42541 11.1466 4.42541 11.8164V13.1841C4.42541 13.8539 3.88251 14.3967 3.21271 14.3967Z" fill="#212121"/>
<path d="M20.7869 14.3967C20.1171 14.3967 19.5742 13.8539 19.5742 13.1841V11.8164C19.5742 11.1466 20.1171 10.6038 20.7869 10.6038C21.4567 10.6038 21.9996 11.1466 21.9996 11.8164V13.1841C21.9996 13.8539 21.4567 14.3967 20.7869 14.3967Z" fill="#212121"/>
<path d="M7.60624 18.4998C6.93643 18.4998 6.39355 17.9569 6.39355 17.2871V15.9195C6.39355 15.2497 6.93643 14.7068 7.60624 14.7068C8.27605 14.7068 8.81897 15.2497 8.81897 15.9195V17.2871C8.81897 17.9569 8.27605 18.4998 7.60624 18.4998ZM7.60624 13.3999C6.93643 13.3999 6.39355 12.857 6.39355 12.1872V7.71419C6.39355 7.04438 6.93643 6.50146 7.60624 6.50146C8.27605 6.50146 8.81897 7.04438 8.81897 7.71419V12.1872C8.81897 12.857 8.27605 13.3999 7.60624 13.3999Z" fill="#212121"/>
<path d="M16.3933 18.4994C15.7235 18.4994 15.1807 17.9565 15.1807 17.2867V12.8137C15.1807 12.1439 15.7235 11.601 16.3933 11.601C17.0632 11.601 17.6061 12.1439 17.6061 12.8137V17.2867C17.6061 17.9565 17.0632 18.4994 16.3933 18.4994ZM16.3933 10.2938C15.7235 10.2938 15.1807 9.75085 15.1807 9.08103V7.71342C15.1807 7.04365 15.7235 6.50073 16.3933 6.50073C17.0632 6.50073 17.6061 7.04365 17.6061 7.71342V9.08103C17.6061 9.75085 17.0632 10.2938 16.3933 10.2938Z" fill="#212121"/>
<path d="M11.9998 22.5C11.33 22.5 10.7871 21.9571 10.7871 21.2873V19.9197C10.7871 19.2499 11.33 18.707 11.9998 18.707C12.6696 18.707 13.2125 19.2499 13.2125 19.9197V21.2873C13.2125 21.9571 12.6696 22.5 11.9998 22.5ZM11.9998 17.3597C11.33 17.3597 10.7871 16.8168 10.7871 16.147V8.85333C10.7871 8.18352 11.33 7.64065 11.9998 7.64065C12.6696 7.64065 13.2125 8.18352 13.2125 8.85333V16.147C13.2125 16.8168 12.6696 17.3597 11.9998 17.3597ZM11.9998 6.293C11.33 6.293 10.7871 5.75013 10.7871 5.08032V3.7127C10.7871 3.0429 11.33 2.5 11.9998 2.5C12.6696 2.5 13.2125 3.0429 13.2125 3.7127V5.08032C13.2125 5.75013 12.6696 6.293 11.9998 6.293Z" fill="#212121"/>
</svg>
