<svg width="24" height="25" viewBox="0 0 24 25" fill="none" xmlns="http://www.w3.org/2000/svg">
<path d="M21.6023 19.8339C21.3261 20.4929 20.887 21.0708 20.3258 21.5132C19.9067 21.8432 19.4295 22.0918 18.9188 22.2463C18.2791 22.4393 17.4849 22.5 16.4991 22.5H7.49613C6.50347 22.5 5.72347 22.4335 5.07646 22.2463C4.5647 22.0943 4.08709 21.8454 3.66945 21.5132C3.10897 21.0701 2.66989 20.4925 2.39292 19.8339C2.00582 18.8412 2 17.7137 2 16.9973V8.0027C2 7.29355 2 6.15877 2.39292 5.16612C2.66916 4.50712 3.10825 3.92919 3.66945 3.48684C4.08854 3.1568 4.56577 2.90818 5.07646 2.75371C5.72309 2.56651 6.50896 2.5 7.49613 2.5H16.4951C17.4878 2.5 18.2678 2.56651 18.9148 2.75371C19.4266 2.90564 19.9042 3.15462 20.3218 3.48684C20.8823 3.92992 21.3214 4.50748 21.5984 5.16612C21.9913 6.15877 21.9913 7.29355 21.9913 8.0027V17.0017C21.9956 17.7137 21.988 18.8412 21.6023 19.8339Z" fill="#212121"/>
<path d="M13.71 14.5749C13.6929 14.3598 13.598 14.1581 13.4432 14.0076C13.1426 13.6943 12.6163 13.4871 11.9966 13.4871C11.3768 13.4871 10.8505 13.687 10.5499 14.0076C10.3987 14.1606 10.3049 14.3609 10.2831 14.5749C10.2293 15.0417 10.2631 15.4415 10.3158 16.0881C10.3696 16.701 10.4688 17.5221 10.5993 18.3475C10.6524 18.7302 10.7302 19.1094 10.832 19.4823C10.9454 19.8552 11.3525 20.1758 11.9991 20.1758C12.6457 20.1758 13.0586 19.8498 13.1662 19.4823C13.268 19.1094 13.3458 18.7306 13.3988 18.3475C13.525 17.5151 13.6256 16.701 13.6823 16.0881C13.7463 15.5862 13.7554 15.0787 13.7093 14.5749H13.71Z" fill="white"/>
<path d="M13.6357 11.1756C13.6357 12.081 12.9015 12.8152 11.9961 12.8152C11.0907 12.8152 10.3564 12.081 10.3564 11.1756C10.3564 10.2701 11.0903 9.53589 11.9961 9.53589C12.9008 9.53516 13.635 10.2679 13.6357 11.1726V11.1756Z" fill="white"/>
<path d="M11.9766 4.7149C8.09143 4.72798 4.95279 7.88841 4.96586 11.7733C4.97606 14.7516 6.86032 17.4006 9.67037 18.3871C9.71979 18.4046 9.7743 18.3788 9.79175 18.3293C9.79685 18.3155 9.7983 18.301 9.7965 18.2864C9.7623 18.0469 9.7227 17.807 9.69725 17.566C9.68345 17.4828 9.63073 17.4112 9.55552 17.373C6.44958 16.022 5.02732 12.4086 6.37869 9.30309C7.72976 6.19714 11.3431 4.77487 14.4486 6.1263C17.5545 7.47733 18.9768 11.0907 17.6254 14.1962C17.0064 15.6189 15.8713 16.7544 14.4486 17.373C14.3687 17.405 14.3134 17.4799 14.3069 17.566L14.2062 18.2864C14.1986 18.3366 14.2331 18.3838 14.2833 18.3915C14.3 18.394 14.3167 18.3918 14.3323 18.3857C17.998 17.0989 19.9266 13.084 18.6399 9.41794C17.6469 6.58899 14.9702 4.70036 11.9723 4.71345L11.9766 4.7149Z" fill="white"/>
<path d="M11.8165 7.04818C9.21799 7.14812 7.19235 9.3359 7.29263 11.9348C7.35006 13.4287 8.11373 14.8066 9.35029 15.6473C9.39717 15.6724 9.45572 15.655 9.48079 15.6077C9.48734 15.5954 9.49133 15.5819 9.49206 15.5677C9.47535 15.2991 9.47535 15.0294 9.49206 14.7608C9.49896 14.6747 9.46407 14.5904 9.39829 14.534C7.8622 13.0961 7.78262 10.6855 9.22017 9.14942C10.6577 7.61338 13.0687 7.53379 14.6047 8.97135C16.1408 10.4089 16.2204 12.8198 14.7828 14.3559C14.7254 14.4173 14.6662 14.4766 14.6047 14.534C14.5444 14.594 14.5106 14.6758 14.5109 14.7608C14.5237 15.0203 14.5109 15.2744 14.5109 15.5608C14.5099 15.6117 14.5506 15.6539 14.6014 15.6546C14.6196 15.6546 14.6374 15.6499 14.6527 15.6401C16.8019 14.18 17.3606 11.2544 15.9005 9.10511C14.9864 7.75914 13.442 6.98128 11.8165 7.04818Z" fill="white"/>
</svg>
