<svg width="24" height="25" viewBox="0 0 24 25" fill="none" xmlns="http://www.w3.org/2000/svg">
<g id="Io">
<path id="Vector" d="M12.0004 2.5C6.47724 2.5 2 6.97725 2 12.5C2 18.0227 6.47724 22.5 12.0004 22.5C17.5235 22.5 22.0007 18.0231 22.0007 12.5C22.0007 6.9769 17.5238 2.5 12.0004 2.5ZM16.5863 16.9227C16.4071 17.2165 16.0227 17.3096 15.7289 17.1292C13.3808 15.695 10.425 15.3703 6.94417 16.1656C6.6089 16.2419 6.27436 16.0318 6.19799 15.6961C6.12123 15.3604 6.33071 15.0263 6.66671 14.9499C10.4759 14.0793 13.7437 14.4542 16.3798 16.0652C16.6736 16.2456 16.7667 16.6289 16.5863 16.9227ZM17.8104 14.1993C17.5846 14.5666 17.1046 14.6823 16.738 14.4568C14.0499 12.804 9.95227 12.3258 6.77291 13.2909C6.36054 13.4157 5.92486 13.1829 5.79976 12.7717C5.67543 12.3592 5.90814 11.9247 6.31979 11.7992C9.95154 10.6974 14.4666 11.2312 17.5537 13.128C17.9202 13.3538 18.0362 13.8339 17.8104 14.2V14.1993ZM17.9155 11.364C14.6924 9.44972 9.37481 9.2737 6.29763 10.2076C5.8034 10.3574 5.28084 10.0785 5.13101 9.58425C4.98119 9.08968 5.2601 8.5675 5.75433 8.41729C9.28683 7.34492 15.159 7.55218 18.8697 9.75516C19.3152 10.0188 19.4606 10.593 19.197 11.037C18.9344 11.4814 18.3588 11.628 17.9155 11.364Z" fill="#212121"/>
</g>
</svg>
