<?xml version="1.0" encoding="UTF-8"?>
<svg width="600px" height="600px" viewBox="0 0 600 600" version="1.1" xmlns="http://www.w3.org/2000/svg" xmlns:xlink="http://www.w3.org/1999/xlink">
    <title>Artboard</title>
    <g id="Artboard" stroke="none" stroke-width="1" fill="none" fill-rule="evenodd">
        <g id="B" transform="translate(298.882353, 300.000000) rotate(120.000000) translate(-298.882353, -300.000000) translate(-1.117647, 0.000000)" fill="#E21F2C" fill-rule="nonzero">
            <path id="Shape" d="M99.1524042,119.026851 L98.462121,123.417363 L94.1853498,150.619554 L89.2460238,149.842986 L92.04,132.069 L83.233,143.223 L82.3884023,144.39616 C53.9556482,184.086651 36.8287369,230.819444 33.2193172,280.230889 L33.1130495,281.744316 L28.1243634,281.408145 C31.5893587,229.988495 49.4186112,181.357189 79.2138892,140.249037 L79.2759685,140.166994 L88.115,128.97 L71.4752444,135.812123 L69.5739675,131.187716 L95.0418196,120.716875 L99.1524042,119.026851 Z M511.265934,127.873474 C540.488662,163.698271 560.218455,206.373516 568.32744,252.235775 L568.343338,252.33798 L570.243,266.473 L576.896834,249.757336 L581.542449,251.606192 L571.360303,277.190834 L569.716876,281.320269 L567.041275,277.771432 L550.464119,255.783983 L554.456561,252.773932 L565.287,267.14 L563.394,253.055 L563.161609,251.756791 C555.138067,207.702721 536.179647,166.687034 508.249274,132.090982 L507.391462,131.033928 L511.265934,127.873474 Z M220.836841,541.732085 L221.613719,546.671362 L203.838,549.466 L217.172,554.43 L218.495968,554.857185 C244.154517,563.056065 271.05307,567.347964 298.527603,567.496033 L300,567.5 C336.046206,567.5 371.091918,560.36824 403.602043,546.698951 L405.540018,551.3081 C372.419067,565.234218 336.714768,572.5 300,572.5 C270.995917,572.5 242.60197,567.966988 215.574851,559.168642 L215.476508,559.134346 L202.096,554.153 L213.714206,567.890773 L209.896526,571.119599 L192.114516,550.09461 L189.244449,546.701117 L193.634918,546.010559 L220.836841,541.732085 Z"></path>
        </g>
    </g>
</svg>