<?xml version="1.0" encoding="utf-8"?>
<!-- Generator: Adobe Illustrator 28.2.0, SVG Export Plug-In . SVG Version: 6.00 Build 0)  -->
<svg version="1.1" id="Layer_1" xmlns="http://www.w3.org/2000/svg" xmlns:xlink="http://www.w3.org/1999/xlink" x="0px" y="0px"
	 viewBox="0 0 469.3 560" style="enable-background:new 0 0 469.3 560;" xml:space="preserve">
<style type="text/css">
	.st0{fill-rule:evenodd;clip-rule:evenodd;fill:#DF1E26;}
	.st1{fill:#1A1A1A;}
	.st2{fill:#FFFFFF;}
</style>
<g>
	<rect x="46.5" y="63.8" class="st0" width="376.3" height="376.3"/>
	<polygon class="st1" points="46.5,495.4 46.5,465.2 61.5,465.2 61.5,467.7 49.2,467.7 49.2,477.2 61.5,477.2 61.5,479.8 
		49.2,479.8 49.2,492.8 61.5,492.8 61.5,495.4 	"/>
	<polygon class="st1" points="80.5,495.4 80.5,481.5 70.4,465.2 73.7,465.2 81.9,479 90,465.2 93.1,465.2 83.2,481.5 83.2,495.4 	
		"/>
	<polygon class="st1" points="102.9,495.4 102.9,465.2 117.8,465.2 117.8,467.7 105.6,467.7 105.6,477.2 117.8,477.2 117.8,479.8 
		105.6,479.8 105.6,492.8 117.8,492.8 117.8,495.4 	"/>
	<polygon class="st1" points="153.7,495.4 153.7,467.7 145.4,467.7 145.4,465.2 164.8,465.2 164.8,467.7 156.4,467.7 156.4,495.4 	
		"/>
	<polygon class="st1" points="175.1,495.4 175.1,465.2 177.9,465.2 177.9,477.4 194.3,477.4 194.3,465.2 197.1,465.2 197.1,495.4 
		194.3,495.4 194.3,479.8 177.9,479.8 177.9,495.4 	"/>
	<polygon class="st1" points="210.4,495.4 210.4,465.2 225.3,465.2 225.3,467.7 213.1,467.7 213.1,477.2 225.3,477.2 225.3,479.8 
		213.1,479.8 213.1,492.8 225.3,492.8 225.3,495.4 	"/>
	<polygon class="st1" points="255.8,495.4 255.8,465.2 270.8,465.2 270.8,467.7 258.6,467.7 258.6,477.2 270.3,477.2 270.3,479.8 
		258.6,479.8 258.6,495.4 	"/>
	<g>
		<path class="st1" d="M282.7,465.2h2.7v19.7c0,3,0.7,5.2,2,6.7c1.4,1.5,3.4,2.2,6.2,2.2c2.8,0,4.8-0.7,6.2-2.2c1.4-1.5,2-3.7,2-6.7
			v-19.7h2.7V484c0,4.1-0.9,7.1-2.7,9.2c-1.8,2-4.6,3-8.3,3c-3.7,0-6.5-1-8.3-3c-1.8-2-2.7-5.1-2.7-9.2V465.2z"/>
		<polygon class="st1" points="323.2,495.4 323.2,467.7 314.9,467.7 314.9,465.2 334.3,465.2 334.3,467.7 326,467.7 326,495.4 		"/>
		<path class="st1" d="M344.5,465.2h2.7v19.7c0,3,0.7,5.2,2,6.7c1.4,1.5,3.4,2.2,6.3,2.2c2.8,0,4.8-0.7,6.2-2.2c1.4-1.5,2-3.7,2-6.7
			v-19.7h2.7V484c0,4.1-0.9,7.1-2.7,9.2c-1.8,2-4.6,3-8.3,3c-3.7,0-6.5-1-8.3-3c-1.8-2-2.7-5.1-2.7-9.2V465.2z"/>
		<path class="st1" d="M398,495.4h-3.3L384.1,481h-1.6v14.4h-2.8v-30.2h5.6c3.3,0,5.7,0.7,7.4,2c1.6,1.4,2.4,3.4,2.4,6.2
			c0,2.4-0.7,4.2-2.1,5.6c-1.4,1.3-3.3,2-5.8,2L398,495.4z M382.4,467.5v11.2h2.8c2.6,0,4.3-0.4,5.4-1.2c1-0.8,1.5-2.2,1.5-4.2
			c0-2.1-0.5-3.6-1.6-4.4c-1-0.9-2.8-1.3-5.3-1.3H382.4z"/>
		<polygon class="st1" points="407.8,495.4 407.8,465.2 422.8,465.2 422.8,467.7 410.5,467.7 410.5,477.2 422.8,477.2 422.8,479.8 
			410.5,479.8 410.5,492.8 422.8,492.8 422.8,495.4 		"/>
		<path class="st2" d="M143.7,234.1c-6.1,0-11.8-1.2-17.2-3.5c-5.4-2.3-10-5.5-14-9.5c-4-4-7.2-8.7-9.5-14
			c-2.3-5.4-3.5-11.1-3.5-17.2s1.2-11.8,3.5-17.2c2.3-5.4,5.5-10,9.5-14.1c4-4,8.7-7.2,14-9.5c5.4-2.3,11.1-3.5,17.2-3.5
			c7.9,0,15.2,1.9,22,5.8c1.3,0.7,2.2,1.8,2.6,3.2c0.4,1.4,0.2,2.7-0.5,4c-0.7,1.4-1.8,2.2-3.2,2.6c-1.4,0.4-2.8,0.2-4.1-0.5
			c-2.5-1.5-5.2-2.6-8-3.3c-2.8-0.7-5.7-1.1-8.8-1.1c-4.7,0-9.1,0.9-13.2,2.7c-4.1,1.8-7.6,4.2-10.7,7.2c-3,3-5.4,6.6-7.2,10.7
			s-2.7,8.5-2.7,13.1c0,4.7,0.9,9.1,2.7,13.2c1.8,4.1,4.2,7.7,7.2,10.7c3,3.1,6.6,5.5,10.7,7.3c4.1,1.8,8.5,2.7,13.2,2.7
			c3.3,0,6.4-0.5,9.5-1.4c3-0.9,5.9-2.2,8.6-3.9c1.3-0.9,2.6-1.2,4-0.8c1.4,0.3,2.5,1.1,3.3,2.4c0.8,1.3,1,2.6,0.7,4
			c-0.3,1.4-1.1,2.5-2.4,3.4C160.2,231.8,152.3,234.1,143.7,234.1"/>
		<path class="st2" d="M266,226.3c0.6,1.4,0.7,2.7,0.2,4c-0.5,1.3-1.4,2.3-2.7,2.9c-1.3,0.6-2.7,0.7-4.1,0.2c-1.3-0.5-2.3-1.4-3-2.7
			l-9.4-20.2h-23.9c-1.5,0-2.8-0.5-3.8-1.5c-1-1-1.5-2.2-1.5-3.8c0-1.4,0.5-2.7,1.5-3.7c1-1,2.2-1.5,3.8-1.5H242l-16.7-35.7
			L196,230.6c-0.5,1-1.1,1.8-2,2.3c-0.9,0.5-1.8,0.8-2.9,0.8c-0.7,0-1.4-0.1-2.2-0.4c-1.3-0.6-2.3-1.6-2.8-3c-0.5-1.3-0.5-2.7,0.2-4
			l34.2-76.8c0.4-1,1-1.7,1.9-2.3c0.9-0.6,1.8-0.8,2.9-0.8c1,0,2,0.3,2.9,0.8c0.9,0.5,1.5,1.2,1.9,2.2L266,226.3z"/>
		<path class="st2" d="M364.6,233.7c-1.4,0-2.6-0.5-3.6-1.5c-1-1-1.5-2.3-1.5-3.7v-53.9l-23.9,56c-0.4,1-1,1.7-1.8,2.3
			c-0.8,0.6-1.8,0.9-2.8,0.9c-1,0-2-0.3-2.9-0.8c-0.9-0.5-1.5-1.3-1.9-2.1l-27.8-58.6v56.4c0,1.4-0.5,2.6-1.5,3.6
			c-1,1-2.2,1.5-3.6,1.5c-1.4,0-2.7-0.5-3.7-1.5c-1-1-1.6-2.2-1.6-3.6v-79.4c0-1.2,0.4-2.3,1.1-3.2c0.7-1,1.7-1.5,2.9-1.8
			s2.3-0.1,3.4,0.4c1.1,0.5,1.9,1.3,2.4,2.4l32.7,68.8l29.3-68.7c0.5-1.1,1.3-1.9,2.4-2.5c1.1-0.6,2.3-0.7,3.4-0.5
			c1.2,0.2,2.2,0.8,3,1.8c0.8,1,1.2,2,1.2,3.2v79.3c0,1.4-0.5,2.7-1.5,3.7C367.3,233.2,366,233.7,364.6,233.7"/>
		<path class="st2" d="M143.7,359.7c-6.1,0-11.8-1.2-17.2-3.5c-5.4-2.3-10-5.5-14-9.5c-4-4-7.2-8.7-9.5-14.1
			c-2.3-5.4-3.5-11.1-3.5-17.2c0-6.1,1.2-11.8,3.5-17.2c2.3-5.4,5.5-10,9.5-14c4-4,8.7-7.2,14-9.5c5.4-2.3,11.1-3.5,17.2-3.5
			c7.9,0,15.2,1.9,22,5.8c1.3,0.7,2.2,1.8,2.6,3.2c0.4,1.4,0.2,2.7-0.5,4c-0.7,1.3-1.8,2.2-3.2,2.6c-1.4,0.4-2.8,0.2-4.1-0.5
			c-2.5-1.5-5.2-2.6-8-3.3c-2.8-0.7-5.7-1.1-8.8-1.1c-4.7,0-9.1,0.9-13.2,2.7c-4.1,1.8-7.6,4.2-10.7,7.2c-3,3-5.4,6.6-7.2,10.7
			c-1.8,4.1-2.7,8.5-2.7,13.1c0,4.7,0.9,9.1,2.7,13.2c1.8,4.1,4.2,7.7,7.2,10.7c3,3.1,6.6,5.5,10.7,7.3c4.1,1.8,8.5,2.7,13.2,2.7
			c3.3,0,6.4-0.5,9.5-1.4c3-0.9,5.9-2.2,8.6-3.9c1.3-0.9,2.6-1.2,4-0.8c1.4,0.3,2.5,1.1,3.3,2.4c0.8,1.3,1,2.6,0.7,4
			c-0.3,1.4-1.1,2.5-2.4,3.4C160.2,357.5,152.3,359.7,143.7,359.7"/>
		<path class="st2" d="M364.6,359.4c-1.4,0-2.6-0.5-3.6-1.6c-1-1-1.5-2.3-1.5-3.7v-53.9l-23.9,56c-0.4,1-1,1.7-1.8,2.3
			c-0.8,0.6-1.8,0.9-2.8,1c-1,0-2-0.3-2.9-0.8c-0.9-0.6-1.5-1.3-1.9-2.1l-27.8-58.6v56.4c0,1.4-0.5,2.6-1.5,3.6
			c-1,1-2.2,1.5-3.6,1.5c-1.4,0-2.7-0.5-3.7-1.5c-1-1-1.6-2.2-1.6-3.6v-79.4c0-1.2,0.4-2.3,1.1-3.2c0.7-0.9,1.7-1.6,2.9-1.8
			c1.2-0.2,2.3-0.1,3.4,0.4c1.1,0.5,1.9,1.3,2.4,2.4l32.7,68.8l29.3-68.7c0.5-1.1,1.3-1.9,2.4-2.5c1.1-0.6,2.3-0.7,3.4-0.5
			c1.2,0.2,2.2,0.8,3,1.8c0.8,1,1.2,2,1.2,3.2v79.3c0,1.4-0.5,2.7-1.5,3.7C367.3,358.8,366,359.4,364.6,359.4"/>
		<path class="st2" d="M214.2,284.5c0.4-0.2,0.8-0.3,1.2-0.4C215,284.2,214.6,284.4,214.2,284.5"/>
		<path class="st2" d="M223.1,282.5c1-0.1,2-0.2,3-0.2C225.1,282.3,224.1,282.4,223.1,282.5"/>
		<path class="st2" d="M267.1,331.9c-0.3,0.7-0.6,1.5-0.9,2.2C266.5,333.3,266.8,332.6,267.1,331.9"/>
		<path class="st2" d="M196.2,300.9c0-0.1,0.1-0.2,0.2-0.3C196.3,300.7,196.2,300.8,196.2,300.9"/>
		<path class="st2" d="M241.4,357.1c-1.1,0.4-2.3,0.8-3.4,1.1C239.2,357.9,240.3,357.5,241.4,357.1"/>
		<path class="st2" d="M194.3,305.4c0.1-0.4,0.3-0.8,0.4-1.1C194.6,304.6,194.4,305,194.3,305.4"/>
		<path class="st2" d="M222,359.6c-0.3,0-0.6-0.1-0.9-0.1C221.4,359.6,221.7,359.6,222,359.6"/>
		<path class="st2" d="M226.2,271.9c-0.1,0-0.1,0-0.2,0c0.2,0,0.5,0,0.7,0C226.5,271.9,226.3,271.9,226.2,271.9"/>
		<path class="st2" d="M193.5,308.3c0.1-0.5,0.3-1.1,0.4-1.6C193.8,307.3,193.6,307.8,193.5,308.3"/>
		<path class="st2" d="M220,282.9c0.7-0.1,1.5-0.3,2.3-0.4C221.5,282.6,220.7,282.8,220,282.9"/>
		<path class="st2" d="M182.5,320.8c0-0.4-0.1-0.8-0.1-1.2C182.4,320,182.4,320.4,182.5,320.8"/>
		<path class="st2" d="M216.8,283.7c0.8-0.2,1.6-0.4,2.4-0.6C218.4,283.2,217.6,283.4,216.8,283.7"/>
		<path class="st2" d="M270,319.5c0,0.5-0.1,0.9-0.1,1.4C269.9,320.4,269.9,319.9,270,319.5"/>
		<path class="st2" d="M226.2,359.8c0.2,0,0.4,0,0.5,0c-0.3,0-0.5,0-0.8,0C226,359.8,226.1,359.8,226.2,359.8"/>
		<path class="st2" d="M231,359.6c-0.3,0-0.6,0-0.9,0.1C230.4,359.6,230.7,359.6,231,359.6"/>
		<path class="st2" d="M235.4,348.1c-0.6,0.2-1.3,0.3-1.9,0.5C234.1,348.4,234.8,348.3,235.4,348.1"/>
		<path class="st2" d="M222.3,349.2c-0.9-0.1-1.9-0.2-2.8-0.4C220.5,348.9,221.4,349.1,222.3,349.2"/>
		<path class="st2" d="M225.9,349.4c-1,0-2-0.1-3-0.2C224,349.3,225,349.4,225.9,349.4"/>
		<path class="st2" d="M270.1,315.8c0-0.2,0-0.4,0-0.6c0,0.5,0,0.9,0,1.4C270.1,316.4,270.1,316.1,270.1,315.8"/>
		<path class="st2" d="M230.1,272.1c0.3,0,0.7,0.1,1,0.1C230.8,272.1,230.4,272.1,230.1,272.1"/>
		<path class="st2" d="M192.8,312.1c0.1-0.9,0.2-1.7,0.4-2.6C193.1,310.4,192.9,311.2,192.8,312.1"/>
		<path class="st2" d="M236,358.7c-0.5,0.1-1,0.2-1.5,0.3C235,358.9,235.5,358.8,236,358.7"/>
		<path class="st2" d="M269.9,311.1c0,0.3,0,0.7,0.1,1C269.9,311.8,269.9,311.5,269.9,311.1"/>
		<path class="st2" d="M192.6,315.5c0-1,0-2,0.2-3.1C192.7,313.5,192.6,314.5,192.6,315.5"/>
		<path class="st2" d="M192.8,318.7c-0.1-0.7-0.1-1.5-0.1-2.3C192.7,317.2,192.7,318,192.8,318.7"/>
		<path class="st2" d="M232.5,348.8c-0.9,0.2-1.8,0.3-2.8,0.4C230.7,349.1,231.6,348.9,232.5,348.8"/>
		<path class="st2" d="M183,307.5c0.1-0.5,0.2-0.9,0.3-1.4C183.2,306.5,183.1,307,183,307.5"/>
		<path class="st2" d="M183.9,303.7c0.2-0.5,0.3-1,0.5-1.6C184.2,302.7,184.1,303.2,183.9,303.7"/>
		<path class="st2" d="M256.8,329.4c-0.3,0.6-0.6,1.2-0.9,1.8C256.3,330.6,256.6,330,256.8,329.4"/>
		<path class="st2" d="M258,326.5c-0.2,0.6-0.4,1.2-0.7,1.9C257.5,327.7,257.8,327.1,258,326.5"/>
		<path class="st2" d="M185.2,299.9c0.4-0.9,0.7-1.8,1.2-2.7C185.9,298.1,185.5,299,185.2,299.9"/>
		<path class="st2" d="M182.4,311.5c0-0.1,0-0.1,0-0.2C182.4,311.4,182.4,311.5,182.4,311.5"/>
		<path class="st2" d="M269.4,323.9c-0.1,0.4-0.1,0.8-0.2,1.2C269.2,324.7,269.3,324.3,269.4,323.9"/>
		<path class="st2" d="M182.2,315.8c0,0.3,0,0.5,0,0.8c0-0.4,0-0.8,0-1.2C182.2,315.5,182.2,315.7,182.2,315.8"/>
		<path class="st2" d="M217.6,359c-0.2,0-0.3-0.1-0.5-0.1C217.3,358.9,217.5,359,217.6,359"/>
		<path class="st2" d="M268.3,328.4c-0.2,0.7-0.4,1.3-0.7,1.9C267.9,329.7,268.1,329,268.3,328.4"/>
		<path class="st2" d="M187.2,295.5c0.3-0.7,0.7-1.3,1.1-2C187.9,294.2,187.5,294.9,187.2,295.5"/>
		<path class="st2" d="M216.9,272.8c0.4-0.1,0.8-0.2,1.2-0.2C217.7,272.7,217.3,272.8,216.9,272.8"/>
		<path class="st2" d="M221,272.2c0.4,0,0.7-0.1,1.1-0.1C221.7,272.1,221.3,272.1,221,272.2"/>
		<path class="st2" d="M226.4,282.3c0.9,0,1.8,0.1,2.7,0.1C228.2,282.4,227.3,282.3,226.4,282.3"/>
		<path class="st2" d="M259.7,316.4c0,0.7-0.1,1.5-0.1,2.2C259.6,317.9,259.7,317.2,259.7,316.4"/>
		<path class="st2" d="M259.6,313c0.1,0.8,0.1,1.6,0.1,2.4C259.7,314.6,259.6,313.8,259.6,313"/>
		<path class="st2" d="M229.2,349.2c-0.9,0.1-1.7,0.1-2.6,0.1C227.5,349.4,228.3,349.3,229.2,349.2"/>
		<path class="st2" d="M259.5,319.6c-0.1,1-0.3,2-0.4,2.9C259.2,321.6,259.4,320.6,259.5,319.6"/>
		<path class="st2" d="M259,322.7c-0.2,0.9-0.5,1.9-0.7,2.8C258.5,324.6,258.8,323.7,259,322.7"/>
		<path class="st2" d="M211.8,274.3c0.6-0.2,1.3-0.4,1.9-0.6C213.1,273.9,212.4,274.1,211.8,274.3"/>
		<path class="st2" d="M266.2,334.1c-0.1,0.3-0.3,0.6-0.5,0.9C265.9,334.7,266,334.4,266.2,334.1"/>
		<path class="st2" d="M269.9,320.8c-0.1,1-0.3,2.1-0.5,3.1C269.6,322.9,269.7,321.9,269.9,320.8"/>
		<path class="st2" d="M267.7,330.3c-0.2,0.5-0.4,1-0.6,1.6C267.3,331.4,267.5,330.8,267.7,330.3"/>
		<path class="st2" d="M269.1,325.1c-0.2,1.1-0.5,2.2-0.8,3.3C268.6,327.3,268.9,326.2,269.1,325.1"/>
		<path class="st2" d="M213.7,273.7c1.1-0.3,2.1-0.6,3.2-0.8C215.8,273.1,214.8,273.4,213.7,273.7"/>
		<path class="st2" d="M210.5,274.8c0.4-0.2,0.9-0.3,1.3-0.5C211.4,274.4,210.9,274.6,210.5,274.8"/>
		<path class="st2" d="M218.2,272.6c0.9-0.2,1.9-0.3,2.8-0.4C220,272.3,219.1,272.4,218.2,272.6"/>
		<path class="st2" d="M222.1,272.1c1.3-0.1,2.6-0.2,3.9-0.2C224.7,271.9,223.4,271.9,222.1,272.1"/>
		<path class="st2" d="M270.1,316.6c0,1-0.1,1.9-0.2,2.8C270,318.5,270.1,317.6,270.1,316.6"/>
		<path class="st2" d="M270,312.2c0.1,1,0.1,2.1,0.2,3.1C270.1,314.2,270,313.2,270,312.2"/>
		<path class="st2" d="M226.7,271.9c1.1,0,2.3,0.1,3.4,0.2C228.9,271.9,227.8,271.9,226.7,271.9"/>
		<path class="st2" d="M270,312.2c0-0.3,0-0.7-0.1-1c-2.2-20.5-18.4-36.7-38.8-39c-0.3,0-0.7-0.1-1-0.1c-1.1-0.1-2.2-0.2-3.4-0.2
			c-0.2,0-0.5,0-0.7,0c-1.3,0-2.6,0.1-3.9,0.2c-0.4,0-0.7,0.1-1.1,0.1c-1,0.1-1.9,0.3-2.8,0.4c-0.4,0.1-0.8,0.1-1.2,0.2
			c-1.1,0.2-2.1,0.5-3.2,0.8c-0.6,0.2-1.3,0.4-1.9,0.6c-0.4,0.2-0.9,0.3-1.3,0.5c-0.7,0.3-1.4,0.5-2,0.8c-3,1.3-3.8,5.3-1.7,7.8
			l0.3,0.3c1.4,1.7,3.8,2.2,5.8,1.4c0.5-0.2,0.9-0.4,1.4-0.5c0.4-0.2,0.8-0.3,1.2-0.4c0.4-0.1,0.9-0.3,1.3-0.4
			c0.8-0.2,1.6-0.4,2.4-0.6c0.3-0.1,0.5-0.1,0.8-0.1c0.7-0.1,1.5-0.3,2.3-0.4c0.3,0,0.6-0.1,0.8-0.1c1-0.1,2-0.2,3-0.2
			c0,0,0.1,0,0.1,0c0.1,0,0.2,0,0.3,0c0.9,0,1.8,0.1,2.7,0.1c0.3,0,0.5,0,0.8,0.1c1,0.1,1.9,0.3,2.9,0.4c0,0,0,0,0,0
			c14.2,2.9,25.1,14.7,26.6,29.3c0,0.2,0,0.5,0.1,0.7c0.1,0.8,0.1,1.6,0.1,2.4c0,0.2,0,0.3,0,0.5c0,0.2,0,0.4,0,0.6
			c0,0.7-0.1,1.5-0.1,2.2c0,0.3-0.1,0.6-0.1,1c-0.1,1-0.3,2-0.4,2.9c0,0.1,0,0.1,0,0.2c-0.2,0.9-0.5,1.9-0.7,2.8
			c-0.1,0.3-0.2,0.7-0.3,1c-0.2,0.6-0.4,1.2-0.7,1.9c-0.1,0.3-0.3,0.7-0.4,1c-0.3,0.6-0.6,1.2-0.9,1.8c-0.2,0.3-0.3,0.6-0.4,0.8
			c-0.4,0.8-0.9,1.5-1.3,2.3c-1.2,1.9-1.2,4.3,0.3,6l0.2,0.3c2.1,2.6,6.2,2.4,8-0.4c1.1-1.7,2.1-3.4,3-5.2c0.2-0.3,0.3-0.6,0.5-0.9
			c0.3-0.7,0.6-1.4,0.9-2.2c0.2-0.5,0.4-1,0.6-1.6c0.2-0.6,0.5-1.3,0.7-1.9c0.3-1.1,0.6-2.1,0.8-3.3c0.1-0.4,0.2-0.8,0.2-1.2
			c0.2-1,0.4-2,0.5-3.1c0.1-0.5,0.1-0.9,0.1-1.4c0.1-0.9,0.1-1.9,0.2-2.8c0-0.5,0-0.9,0-1.4C270.1,314.2,270,313.2,270,312.2"/>
		<path class="st2" d="M219.2,283c0.3-0.1,0.5-0.1,0.8-0.1C219.7,282.9,219.4,283,219.2,283"/>
		<path class="st2" d="M229.2,282.5c0.3,0,0.5,0,0.8,0.1C229.7,282.5,229.4,282.5,229.2,282.5"/>
		<path class="st2" d="M259.5,312.3c0,0.2,0,0.5,0.1,0.7C259.5,312.7,259.5,312.5,259.5,312.3"/>
		<path class="st2" d="M226.2,282.3C226.1,282.3,226.1,282.3,226.2,282.3c0,0,0.2,0,0.3,0C226.3,282.3,226.3,282.3,226.2,282.3"/>
		<path class="st2" d="M259.7,315.8c0-0.2,0-0.3,0-0.5c0,0.3,0,0.7,0,1C259.7,316.2,259.7,316,259.7,315.8"/>
		<path class="st2" d="M259,322.5c0,0.1,0,0.1,0,0.2C259,322.7,259,322.6,259,322.5"/>
		<path class="st2" d="M222.3,282.5c0.3,0,0.6-0.1,0.8-0.1C222.8,282.5,222.5,282.5,222.3,282.5"/>
		<path class="st2" d="M259.6,318.6c0,0.3-0.1,0.6-0.1,1C259.5,319.3,259.5,319,259.6,318.6"/>
		<path class="st2" d="M257.3,328.3c-0.1,0.3-0.3,0.7-0.4,1C257,329,257.1,328.7,257.3,328.3"/>
		<path class="st2" d="M214.2,284.5c-0.5,0.2-0.9,0.3-1.4,0.5c0,0,0.1,0,0.1,0C213.4,284.8,213.8,284.7,214.2,284.5"/>
		<path class="st2" d="M258.3,325.5c-0.1,0.3-0.2,0.7-0.3,1C258.1,326.1,258.2,325.8,258.3,325.5"/>
		<path class="st2" d="M215.4,284.1c0.4-0.1,0.9-0.3,1.3-0.4C216.3,283.8,215.9,283.9,215.4,284.1"/>
		<path class="st2" d="M255.5,332c0.2-0.3,0.3-0.6,0.4-0.8C255.8,331.5,255.7,331.7,255.5,332"/>
		<path class="st2" d="M183.3,306.1c0.2-0.8,0.4-1.6,0.6-2.4C183.7,304.5,183.5,305.3,183.3,306.1"/>
		<path class="st2" d="M182.2,315.4c0-1.3,0.1-2.6,0.2-3.9C182.3,312.8,182.2,314.1,182.2,315.4"/>
		<path class="st2" d="M182.4,311.3c0.1-1.3,0.3-2.6,0.6-3.9C182.7,308.7,182.5,310,182.4,311.3"/>
		<path class="st2" d="M182.4,319.6c-0.1-1-0.1-2-0.2-3C182.2,317.6,182.3,318.6,182.4,319.6"/>
		<path class="st2" d="M184.4,302.1c0.2-0.7,0.5-1.5,0.8-2.2C184.9,300.7,184.6,301.4,184.4,302.1"/>
		<path class="st2" d="M225.9,359.8c-1.3,0-2.6-0.1-3.9-0.2C223.3,359.8,224.6,359.8,225.9,359.8"/>
		<path class="st2" d="M230.1,359.6c-1.1,0.1-2.2,0.2-3.4,0.2C227.8,359.8,229,359.7,230.1,359.6"/>
		<path class="st2" d="M234.5,359c-1.2,0.2-2.3,0.4-3.5,0.5C232.1,359.4,233.3,359.3,234.5,359"/>
		<path class="st2" d="M221.1,359.5c-1.2-0.1-2.3-0.3-3.4-0.5C218.8,359.2,219.9,359.4,221.1,359.5"/>
		<path class="st2" d="M186.3,297.2c0.3-0.6,0.5-1.1,0.8-1.7C186.9,296.1,186.6,296.7,186.3,297.2"/>
		<path class="st2" d="M188.7,292.9c-0.1,0.2-0.3,0.5-0.4,0.7c0.2-0.3,0.3-0.5,0.5-0.8C188.7,292.8,188.7,292.8,188.7,292.9"/>
		<path class="st2" d="M238,358.2c-0.7,0.2-1.4,0.4-2,0.5C236.6,358.6,237.3,358.4,238,358.2"/>
		<path class="st2" d="M242.2,356.8C242.2,356.8,242.2,356.8,242.2,356.8c-0.2,0.1-0.5,0.2-0.8,0.3C241.7,357,242,356.9,242.2,356.8
			"/>
		<path class="st2" d="M244.2,348.6c-1.5-1.7-3.8-2.3-6-1.5c-0.4,0.2-0.9,0.3-1.3,0.5c-0.5,0.2-1,0.3-1.5,0.5
			c-0.6,0.2-1.3,0.3-1.9,0.5c-0.3,0.1-0.6,0.1-1,0.2c-0.9,0.2-1.8,0.3-2.8,0.4c-0.2,0-0.4,0-0.6,0c-0.9,0.1-1.7,0.1-2.6,0.1
			c-0.1,0-0.3,0-0.4,0c-0.1,0-0.2,0-0.2,0c-1,0-2-0.1-3-0.2c-0.2,0-0.4,0-0.6-0.1c-0.9-0.1-1.8-0.2-2.8-0.4c-0.1,0-0.2,0-0.2,0
			c-14-2.9-24.8-14.6-26.5-29c0-0.3-0.1-0.6-0.1-1c-0.1-0.8-0.1-1.5-0.1-2.3c0-0.2,0-0.4,0-0.6c0-0.1,0-0.2,0-0.3c0-1,0-2,0.2-3.1
			c0-0.1,0-0.2,0.1-0.4c0.1-0.9,0.2-1.7,0.4-2.6c0.1-0.4,0.2-0.8,0.3-1.2c0.1-0.5,0.3-1.1,0.4-1.6c0.1-0.5,0.3-0.9,0.4-1.4
			c0.1-0.4,0.3-0.8,0.4-1.1c0.4-1.1,0.9-2.2,1.4-3.3c0-0.1,0.1-0.2,0.2-0.3c0.3-0.7,0.7-1.3,1.1-1.9c0-0.1,0.1-0.1,0.1-0.2
			c1.2-1.9,1-4.4-0.4-6.1l0,0c-2.2-2.6-6.4-2.5-8.3,0.4c-0.2,0.3-0.3,0.5-0.5,0.8c-0.4,0.6-0.7,1.3-1.1,1.9
			c-0.3,0.6-0.6,1.1-0.8,1.7c-0.4,0.9-0.8,1.8-1.2,2.7c-0.3,0.7-0.6,1.4-0.8,2.2c-0.2,0.5-0.3,1-0.5,1.6c-0.2,0.8-0.4,1.6-0.6,2.4
			c-0.1,0.5-0.2,0.9-0.3,1.4c-0.3,1.3-0.5,2.6-0.6,3.9c0,0.1,0,0.1,0,0.2c-0.1,1.3-0.2,2.6-0.2,3.9c0,0.4,0,0.8,0,1.2
			c0,1,0.1,2,0.2,3c0,0.4,0.1,0.8,0.1,1.2c2.1,18.9,16.3,34.2,34.7,38.1c0.2,0,0.3,0.1,0.5,0.1c1.1,0.2,2.3,0.4,3.4,0.5
			c0.3,0,0.6,0.1,0.9,0.1c1.3,0.1,2.6,0.2,3.9,0.2c0.3,0,0.6,0,0.8,0c1.1,0,2.3-0.1,3.4-0.2c0.3,0,0.6,0,0.9-0.1
			c1.2-0.1,2.4-0.3,3.5-0.5c0.5-0.1,1-0.2,1.5-0.3c0.7-0.2,1.4-0.3,2-0.5c1.2-0.3,2.3-0.7,3.4-1.1c0.3-0.1,0.5-0.2,0.8-0.3
			C245.5,355.5,246.5,351.3,244.2,348.6"/>
		<path class="st2" d="M196.3,300.6c0.3-0.7,0.7-1.3,1.1-1.9C197,299.3,196.6,299.9,196.3,300.6"/>
		<path class="st2" d="M193.2,309.5c0.1-0.4,0.2-0.8,0.3-1.2C193.4,308.7,193.3,309.1,193.2,309.5"/>
		<path class="st2" d="M192.8,312.5c0-0.1,0-0.2,0.1-0.4C192.8,312.2,192.8,312.3,192.8,312.5"/>
		<path class="st2" d="M192.6,315.8c0,0.2,0,0.4,0,0.6c0-0.3,0-0.6,0-0.9C192.6,315.6,192.6,315.7,192.6,315.8"/>
		<path class="st2" d="M194.7,304.2c0.4-1.1,0.9-2.2,1.4-3.3C195.6,302,195.1,303.1,194.7,304.2"/>
		<path class="st2" d="M192.8,319.7c0-0.3-0.1-0.6-0.1-1C192.8,319,192.8,319.3,192.8,319.7"/>
		<path class="st2" d="M193.9,306.7c0.1-0.5,0.3-0.9,0.4-1.4C194.2,305.8,194,306.3,193.9,306.7"/>
		<path class="st2" d="M236.9,347.6c-0.5,0.2-1,0.3-1.5,0.5C235.9,347.9,236.4,347.8,236.9,347.6"/>
		<path class="st2" d="M229.8,349.2c-0.2,0-0.4,0-0.6,0C229.4,349.2,229.6,349.2,229.8,349.2"/>
		<path class="st2" d="M233.5,348.6c-0.3,0.1-0.6,0.1-1,0.2C232.9,348.7,233.2,348.6,233.5,348.6"/>
		<path class="st2" d="M223,349.2c-0.2,0-0.4,0-0.6-0.1C222.5,349.2,222.7,349.2,223,349.2"/>
		<path class="st2" d="M219.6,348.7c-0.1,0-0.2,0-0.2,0C219.4,348.7,219.5,348.7,219.6,348.7"/>
		<path class="st2" d="M226.2,349.4c0.1,0,0.3,0,0.4,0c-0.2,0-0.4,0-0.6,0C226,349.4,226.1,349.4,226.2,349.4"/>
	</g>
</g>
</svg>
